####
#
# OBJ File Generated by Meshlab
#
####
# Object 8_fertility_output_res_2.obj
#
# Vertices: 1500
# Faces: 3012
#
####
v -0.124283 0.151663 0.065122
v -0.271540 0.205580 0.085266
v -0.297778 0.087601 0.075676
v -0.183494 0.029205 0.048324
v -0.049005 0.263181 0.037354
v -0.044170 0.335616 0.061947
v -0.120606 0.152075 -0.054220
v -0.049432 0.261820 -0.026074
v -0.001443 0.019796 0.042849
v -0.001605 0.021578 -0.040072
v -0.067762 -0.038843 0.045964
v -0.181867 0.029322 -0.038927
v -0.070833 -0.038077 -0.040142
v -0.152335 -0.251066 0.050757
v -0.152239 -0.246755 -0.045111
v -0.238398 -0.294059 0.061778
v -0.271172 0.211232 -0.100401
v -0.296034 0.086506 -0.082476
v -0.050500 0.335641 -0.047753
v -0.237367 -0.292134 -0.048782
v -0.049205 -0.084909 0.037445
v 0.034572 -0.087201 0.043801
v -0.126006 -0.358381 0.064051
v -0.051900 -0.084245 -0.033798
v 0.123158 -0.023124 0.037707
v 0.101078 0.018516 0.022739
v 0.035053 -0.084035 -0.038877
v 0.121172 -0.019546 -0.037057
v -0.127859 -0.359739 -0.063253
v 0.099213 0.021341 -0.019926
v 0.036744 0.253416 -0.023452
v 0.039215 0.253081 0.032005
v 0.134742 0.065873 -0.021064
v 0.140111 0.064056 0.028123
v 0.043004 0.318078 -0.036345
v 0.167774 0.041411 -0.031094
v 0.045232 0.316474 0.046295
v 0.170458 0.039912 0.032589
v -0.223966 -0.382058 0.055331
v -0.223314 -0.379651 -0.046758
v 0.116216 0.008267 -0.055722
v 0.106319 0.023871 -0.074187
v 0.090829 0.037734 -0.090069
v 0.070434 0.053348 -0.106357
v 0.045131 0.074335 -0.121495
v 0.023605 0.100287 -0.133837
v 0.007004 0.130525 -0.141997
v -0.007658 0.164171 -0.144914
v -0.018593 0.200114 -0.139566
v -0.026629 0.234702 -0.126860
v -0.029925 0.266202 -0.108830
v -0.032562 0.289844 -0.086344
v -0.034851 0.308371 -0.068239
v 0.028571 0.296569 -0.062235
v 0.025313 0.284296 -0.085266
v 0.020376 0.263646 -0.105084
v 0.019635 0.234981 -0.119921
v 0.020062 0.205303 -0.128970
v 0.024354 0.173608 -0.131259
v 0.033911 0.145123 -0.129658
v 0.046653 0.119430 -0.123920
v 0.064393 0.096404 -0.116346
v 0.088216 0.076281 -0.104883
v 0.109415 0.060263 -0.092372
v 0.129049 0.049516 -0.076504
v 0.148758 0.035143 -0.057701
v -0.300517 0.114651 -0.100447
v -0.305383 0.147765 -0.118011
v -0.291927 0.186495 -0.121858
v -0.167274 -0.262393 -0.087917
v -0.183132 -0.272916 -0.122651
v -0.224473 -0.285047 -0.125886
v -0.237517 -0.288691 -0.090342
v -0.207342 0.051837 -0.054455
v -0.229239 0.064856 -0.074675
v -0.239873 0.072805 -0.108214
v -0.279076 0.076727 -0.125932
v 0.101295 0.032863 -0.036772
v 0.098479 0.034712 -0.047611
v 0.081626 0.049938 -0.066931
v 0.063002 0.063112 -0.079561
v 0.040217 0.084875 -0.090623
v 0.019387 0.108309 -0.097409
v 0.004517 0.134573 -0.100294
v -0.007897 0.160999 -0.100769
v -0.017869 0.187786 -0.094695
v -0.024472 0.210715 -0.084449
v -0.030463 0.232038 -0.068889
v -0.031971 0.248641 -0.053059
v -0.037477 0.255571 -0.041832
v 0.020765 0.253807 -0.042495
v 0.016799 0.244961 -0.054700
v 0.009367 0.235602 -0.073733
v 0.008002 0.218032 -0.089658
v 0.010773 0.195753 -0.099356
v 0.016689 0.169673 -0.104981
v 0.026301 0.144516 -0.105400
v 0.039100 0.121380 -0.101556
v 0.057112 0.100361 -0.093560
v 0.078857 0.081558 -0.081627
v 0.096618 0.068446 -0.069283
v 0.113594 0.057085 -0.046182
v 0.123113 0.057144 -0.038355
v -0.145530 0.162303 -0.075057
v -0.172959 0.172258 -0.085322
v -0.202760 0.183867 -0.089432
v -0.235719 0.199754 -0.093329
v -0.149227 -0.276790 -0.066046
v -0.141014 -0.302939 -0.074004
v -0.131490 -0.330162 -0.076235
v -0.134038 0.114306 -0.074306
v -0.151010 0.083011 -0.077307
v -0.166339 0.055969 -0.063930
v -0.221620 -0.391287 -0.062247
v -0.200124 -0.396402 -0.074699
v -0.171111 -0.383772 -0.073688
v -0.146405 -0.371656 -0.070080
v -0.068626 0.339333 -0.044223
v -0.083785 0.341054 -0.042248
v -0.099913 0.338824 -0.041510
v -0.117136 0.335484 -0.042196
v -0.135161 0.330544 -0.045075
v -0.154699 0.323321 -0.050120
v -0.175609 0.312803 -0.058026
v -0.199313 0.296442 -0.069332
v -0.226082 0.268602 -0.077504
v -0.244324 0.239514 -0.082374
v -0.300833 0.242016 0.078020
v -0.323531 0.256329 0.028520
v -0.323754 0.256454 -0.028099
v -0.303383 0.247345 -0.083936
v -0.226388 -0.361192 -0.052375
v -0.230088 -0.338720 -0.056278
v -0.234110 -0.313435 -0.056151
v -0.024603 0.007358 -0.056936
v -0.044958 -0.009705 -0.060922
v -0.059225 -0.024946 -0.051977
v -0.241079 -0.267198 -0.052976
v -0.244991 -0.241516 -0.056630
v -0.249237 -0.213596 -0.059954
v -0.253482 -0.184844 -0.061491
v -0.257867 -0.155285 -0.062447
v -0.262402 -0.125467 -0.063254
v -0.266973 -0.095703 -0.064119
v -0.271573 -0.066100 -0.065357
v -0.276193 -0.036899 -0.067043
v -0.280905 -0.007285 -0.068974
v -0.285675 0.022448 -0.070525
v -0.290835 0.053248 -0.071992
v 0.009822 -0.002623 -0.045288
v 0.017689 -0.022836 -0.047636
v 0.024623 -0.043295 -0.047450
v 0.029896 -0.062259 -0.045277
v 0.008964 -0.090193 -0.052728
v -0.015807 -0.090764 -0.053449
v -0.034851 -0.086910 -0.044952
v -0.210957 0.023122 -0.022137
v -0.212043 0.001521 -0.025938
v -0.209059 -0.017676 -0.031636
v -0.205487 -0.039461 -0.035925
v -0.200182 -0.062780 -0.039442
v -0.194260 -0.088021 -0.041941
v -0.189320 -0.114776 -0.043667
v -0.184279 -0.141512 -0.044869
v -0.179640 -0.168006 -0.045282
v -0.176103 -0.192969 -0.044743
v -0.172143 -0.215493 -0.043749
v -0.164332 -0.235285 -0.045504
v -0.053880 0.272594 -0.036734
v -0.054004 0.281991 -0.044339
v -0.052800 0.293584 -0.049557
v -0.051789 0.308086 -0.052836
v -0.152978 0.017701 -0.037743
v -0.134661 0.007898 -0.036888
v -0.117712 -0.003250 -0.036644
v -0.101624 -0.014794 -0.037086
v -0.085750 -0.026749 -0.038242
v 0.012550 0.327392 -0.046991
v -0.015722 0.333783 -0.050891
v 0.025719 -0.116566 -0.036999
v 0.015841 -0.142291 -0.037094
v 0.002265 -0.171050 -0.037592
v -0.011709 -0.200398 -0.039078
v -0.027667 -0.229629 -0.041416
v -0.045596 -0.258164 -0.043681
v -0.064810 -0.285358 -0.046289
v -0.084489 -0.311715 -0.051373
v -0.105370 -0.337913 -0.056616
v 0.179175 0.058954 -0.027467
v 0.197482 0.070429 -0.030993
v 0.206785 0.093530 -0.034658
v 0.204327 0.122895 -0.026057
v 0.203008 0.145750 -0.024765
v 0.208001 0.171087 -0.046279
v 0.198720 0.211375 -0.054493
v 0.178162 0.246316 -0.049769
v 0.155331 0.270548 -0.040470
v 0.134685 0.288681 -0.033183
v 0.114881 0.302299 -0.027801
v 0.095918 0.310573 -0.025350
v 0.079804 0.316210 -0.025544
v 0.064881 0.317418 -0.028207
v -0.096150 0.121281 -0.046033
v -0.077903 0.101287 -0.042502
v -0.060349 0.083498 -0.040480
v -0.043388 0.066644 -0.039621
v -0.027355 0.050104 -0.039203
v -0.057546 -0.073642 -0.033002
v -0.060474 -0.066046 -0.033638
v -0.064137 -0.057472 -0.034807
v -0.067513 -0.048166 -0.037076
v 0.061615 0.269234 -0.016807
v 0.073763 0.270765 -0.016369
v 0.083937 0.269306 -0.016358
v 0.095877 0.265248 -0.017502
v 0.109523 0.254960 -0.020300
v 0.117760 0.237804 -0.028446
v 0.122603 0.212860 -0.041593
v 0.138824 0.182801 -0.040878
v 0.157632 0.161297 -0.029898
v 0.170717 0.145098 -0.018244
v 0.166212 0.126568 -0.019217
v 0.153006 0.111494 -0.026004
v 0.145503 0.097454 -0.026077
v 0.143901 0.080590 -0.021006
v 0.047676 0.282173 -0.039720
v 0.036486 0.031914 -0.037730
v 0.061115 0.029611 -0.031189
v 0.075994 0.019207 -0.023217
v 0.057475 -0.063954 -0.031118
v 0.082031 -0.059009 -0.041303
v 0.104721 -0.044812 -0.041987
v 0.156116 0.016803 -0.043779
v 0.139752 -0.000677 -0.043251
v -0.298400 0.091637 0.044442
v -0.298146 0.092121 0.014447
v -0.297626 0.091387 -0.016753
v -0.297155 0.090048 -0.049024
v -0.049329 -0.101917 -0.031658
v -0.052045 -0.124533 -0.027606
v -0.057973 -0.148031 -0.025159
v -0.067293 -0.170677 -0.023660
v -0.080531 -0.191048 -0.024350
v -0.096266 -0.209104 -0.026020
v -0.113616 -0.225147 -0.029218
v -0.130053 -0.238395 -0.035025
v -0.139503 -0.245247 -0.039952
v -0.118091 -0.370454 0.041125
v -0.113920 -0.375633 0.014586
v -0.115399 -0.374762 -0.012926
v -0.120765 -0.370033 -0.039182
v 0.109910 -0.006011 -0.035467
v 0.104639 0.000961 -0.032188
v 0.101110 0.005815 -0.028121
v 0.098962 0.011218 -0.022424
v 0.151023 0.059309 -0.033909
v 0.107343 0.050545 -0.021803
v -0.064331 0.268889 -0.019951
v -0.078180 0.272931 -0.019483
v -0.086345 0.271895 -0.016765
v -0.095604 0.269616 -0.015195
v -0.105281 0.265161 -0.014601
v -0.114378 0.258392 -0.015046
v -0.121668 0.248086 -0.017094
v -0.126176 0.233401 -0.021046
v -0.127715 0.214165 -0.027777
v -0.126633 0.189563 -0.037498
v -0.223339 -0.383459 0.038875
v -0.222823 -0.385150 0.015587
v -0.222846 -0.383964 -0.008763
v -0.223358 -0.379607 -0.030809
v -0.041841 0.354674 0.039960
v -0.037500 0.361538 0.017784
v -0.037947 0.361663 -0.005612
v -0.042533 0.354906 -0.027298
v -0.088173 -0.045952 0.017986
v -0.090356 -0.047469 -0.012929
v 0.004408 0.056444 0.022239
v 0.005168 0.058135 -0.014460
v 0.135173 -0.038142 0.027450
v 0.139608 -0.044336 0.009927
v 0.138272 -0.042762 -0.010136
v 0.132481 -0.034541 -0.027235
v -0.238361 -0.291474 0.037559
v -0.238072 -0.291023 0.015387
v -0.237855 -0.290674 -0.006781
v -0.237642 -0.290770 -0.028731
v -0.006282 0.247288 -0.020877
v -0.184892 0.012484 0.016909
v -0.184888 0.013224 -0.008461
v -0.106523 0.159023 0.024252
v -0.108024 0.158262 -0.010812
v -0.149779 -0.223552 0.015928
v -0.144460 -0.224590 -0.014138
v -0.065432 -0.091997 0.015027
v -0.067486 -0.091995 -0.011058
v 0.044982 0.333861 0.031056
v 0.043667 0.342124 0.014477
v 0.043037 0.342198 -0.004122
v 0.043037 0.335495 -0.021503
v 0.035912 0.247672 0.013082
v 0.035208 0.248351 -0.004668
v 0.130776 0.068909 0.011240
v 0.130189 0.069486 -0.004951
v 0.177036 0.033322 0.020333
v 0.179373 0.031372 0.007344
v 0.178600 0.032186 -0.006035
v 0.175470 0.035056 -0.018403
v -0.044155 0.252143 0.016273
v -0.044055 0.252887 -0.003934
v 0.049814 -0.094661 0.025797
v 0.053820 -0.097335 0.009338
v 0.052908 -0.096765 -0.007268
v 0.047730 -0.092803 -0.023209
v 0.096982 0.021446 0.007833
v 0.095789 0.023822 -0.004691
v 0.066291 0.313794 0.035392
v 0.081603 0.312430 0.032435
v 0.096792 0.309086 0.030517
v 0.115031 0.299127 0.031291
v 0.134847 0.286009 0.034066
v 0.155517 0.269548 0.040045
v 0.178660 0.247351 0.049642
v 0.200993 0.214066 0.057891
v 0.209569 0.172782 0.049816
v 0.205318 0.145408 0.029441
v 0.207306 0.122228 0.029181
v 0.209894 0.094142 0.037598
v 0.201471 0.068281 0.034485
v 0.188271 0.053304 0.026349
v 0.058887 0.266986 0.025903
v 0.074586 0.268738 0.023656
v 0.085105 0.267250 0.023418
v 0.096970 0.262460 0.023773
v 0.110395 0.252962 0.024591
v 0.121236 0.236999 0.029703
v 0.128058 0.213986 0.041019
v 0.142038 0.185361 0.043928
v 0.159378 0.162717 0.034559
v 0.172587 0.146255 0.021654
v 0.169974 0.125700 0.022218
v 0.157872 0.110398 0.030882
v 0.149275 0.098187 0.033208
v 0.147100 0.084635 0.030452
v -0.005021 0.236964 0.029490
v 0.111152 -0.010802 0.037020
v 0.106254 -0.004935 0.034059
v 0.103127 0.000193 0.029987
v 0.101081 0.006120 0.025383
v -0.046427 -0.102929 0.035052
v -0.049757 -0.125712 0.030750
v -0.055898 -0.148675 0.028444
v -0.065608 -0.172098 0.025993
v -0.078243 -0.192713 0.025398
v -0.093501 -0.209973 0.027267
v -0.110217 -0.225032 0.031578
v -0.126973 -0.238712 0.037911
v -0.137218 -0.244585 0.039695
v -0.069010 0.271480 0.037903
v -0.076875 0.270775 0.035522
v -0.084694 0.269950 0.034535
v -0.093784 0.267558 0.032914
v -0.103615 0.262998 0.031645
v -0.112950 0.256628 0.031543
v -0.120827 0.246626 0.032784
v -0.126687 0.232895 0.036263
v -0.129440 0.213617 0.042096
v -0.128429 0.189427 0.051798
v 0.108172 0.047860 0.027132
v -0.210437 0.022001 0.030943
v -0.214946 0.003211 0.034263
v -0.211331 -0.016841 0.039137
v -0.207320 -0.039126 0.044760
v -0.201391 -0.063099 0.047932
v -0.196210 -0.088640 0.049720
v -0.191007 -0.115189 0.050369
v -0.185983 -0.142242 0.049985
v -0.182058 -0.168879 0.049053
v -0.178669 -0.194307 0.047504
v -0.173843 -0.219425 0.045430
v -0.164020 -0.237194 0.046638
v 0.155333 0.056733 0.035614
v 0.160542 0.011300 0.043707
v 0.143962 -0.007289 0.042956
v 0.105960 -0.047836 0.042705
v 0.083004 -0.062951 0.042130
v 0.058586 -0.066864 0.032445
v -0.105381 -0.337385 0.057353
v -0.084244 -0.313383 0.052484
v -0.062939 -0.286942 0.048860
v -0.043523 -0.259485 0.045281
v -0.025333 -0.231596 0.043436
v -0.008988 -0.202422 0.042341
v 0.005775 -0.172844 0.041502
v 0.019554 -0.142743 0.040702
v 0.028862 -0.117726 0.041765
v 0.037208 0.028099 0.042842
v 0.064523 0.027625 0.038045
v 0.080125 0.018361 0.028490
v 0.016398 0.327424 0.059546
v -0.011655 0.333696 0.064110
v 0.050281 0.281053 0.048433
v -0.292459 0.055273 0.071098
v -0.287364 0.023932 0.071005
v -0.282636 -0.006104 0.070507
v -0.277798 -0.035966 0.069791
v -0.273154 -0.065753 0.069227
v -0.268465 -0.096037 0.068986
v -0.263958 -0.126191 0.069230
v -0.259420 -0.156177 0.069692
v -0.254798 -0.185731 0.069406
v -0.250646 -0.214650 0.068538
v -0.246387 -0.242292 0.066394
v -0.242301 -0.268297 0.062736
v -0.064560 -0.047537 0.042653
v -0.060828 -0.056989 0.040007
v -0.056789 -0.065762 0.038706
v -0.052456 -0.074317 0.038675
v -0.098020 0.118526 0.055577
v -0.079186 0.098907 0.050448
v -0.061264 0.080796 0.047621
v -0.043927 0.063469 0.045450
v -0.027285 0.046123 0.044075
v -0.082631 -0.025863 0.044458
v -0.098800 -0.014133 0.043071
v -0.115723 -0.002798 0.043394
v -0.133821 0.007673 0.044914
v -0.152849 0.018163 0.046892
v -0.249783 0.237315 0.081590
v -0.230921 0.267020 0.079517
v -0.204116 0.292012 0.072324
v -0.180129 0.309504 0.065005
v -0.158228 0.321041 0.059720
v -0.137790 0.328835 0.056616
v -0.118788 0.334317 0.055239
v -0.100452 0.338014 0.054772
v -0.083411 0.340072 0.054988
v -0.067357 0.342255 0.055403
v -0.234950 -0.316362 0.066340
v -0.230752 -0.341667 0.064897
v -0.226903 -0.364226 0.060045
v -0.049598 0.274468 0.049613
v -0.049506 0.283447 0.057741
v -0.050029 0.294111 0.064158
v -0.051411 0.309425 0.067837
v 0.009855 -0.005801 0.047506
v 0.018143 -0.026171 0.048313
v 0.025400 -0.046108 0.047907
v 0.030953 -0.064761 0.046730
v 0.011897 -0.091763 0.054719
v -0.013516 -0.092504 0.057856
v -0.032948 -0.088953 0.049997
v -0.023849 0.004363 0.061735
v -0.043388 -0.012032 0.067393
v -0.058847 -0.026348 0.059523
v -0.284874 0.080336 0.127145
v -0.245968 0.074449 0.113416
v -0.232571 0.064061 0.083372
v -0.209364 0.051254 0.065946
v -0.132584 -0.329195 0.071575
v -0.141550 -0.302745 0.069915
v -0.148129 -0.276834 0.064852
v -0.221435 -0.394768 0.068873
v -0.195446 -0.393077 0.075419
v -0.166648 -0.383735 0.075244
v -0.142570 -0.371655 0.071237
v -0.032949 0.254894 0.054043
v -0.027633 0.245015 0.063427
v -0.022269 0.232185 0.075957
v -0.017077 0.209289 0.089598
v -0.011593 0.171142 0.094845
v -0.000905 0.136079 0.099770
v 0.013509 0.109507 0.096678
v 0.029754 0.084653 0.092979
v 0.048316 0.064727 0.086643
v 0.068599 0.048863 0.077903
v 0.089502 0.036696 0.065450
v 0.106117 0.024601 0.047058
v 0.106164 0.026097 0.038129
v -0.137774 0.113952 0.082621
v -0.153771 0.082790 0.085718
v -0.168432 0.054849 0.075569
v 0.024352 0.250407 0.051527
v 0.022046 0.245037 0.064205
v 0.017503 0.236369 0.078801
v 0.014311 0.212784 0.095810
v 0.016985 0.176811 0.105476
v 0.024384 0.144691 0.107953
v 0.035528 0.120397 0.105936
v 0.050367 0.099374 0.100911
v 0.067088 0.080974 0.094400
v 0.084613 0.066238 0.085120
v 0.103591 0.054636 0.071563
v 0.116376 0.049858 0.059464
v 0.127140 0.051966 0.045371
v -0.240553 0.197383 0.086694
v -0.209256 0.182804 0.087167
v -0.179813 0.171550 0.087605
v -0.151706 0.161955 0.082789
v -0.291166 0.188239 0.115365
v -0.307257 0.151124 0.114201
v -0.302931 0.118754 0.096433
v -0.239619 -0.291998 0.101375
v -0.216767 -0.286982 0.126963
v -0.180910 -0.275634 0.117545
v -0.170109 -0.265162 0.081750
v 0.121345 0.000861 0.054728
v 0.113631 0.012374 0.070275
v 0.099051 0.020971 0.086989
v 0.076533 0.036583 0.104222
v 0.053782 0.053779 0.117859
v 0.032564 0.075000 0.129880
v 0.013776 0.102227 0.139432
v -0.002361 0.134944 0.143964
v -0.014061 0.178145 0.144198
v -0.021255 0.226975 0.133206
v -0.021744 0.263395 0.115925
v -0.023794 0.285142 0.099005
v -0.027789 0.306415 0.081745
v 0.035275 0.299100 0.079293
v 0.031221 0.282612 0.098436
v 0.027799 0.258777 0.113958
v 0.022818 0.225155 0.126413
v 0.022073 0.181772 0.133857
v 0.027368 0.144652 0.134512
v 0.038317 0.117657 0.131594
v 0.054340 0.094456 0.125651
v 0.071979 0.073619 0.118197
v 0.091736 0.057201 0.106612
v 0.115003 0.043371 0.091922
v 0.136412 0.035912 0.076054
v 0.149359 0.035610 0.055807
v -0.165392 0.129034 0.087276
v -0.194274 0.141384 0.087421
v -0.224759 0.153636 0.086316
v -0.258859 0.167672 0.089055
v -0.179942 0.098649 0.088333
v -0.208215 0.112480 0.088201
v -0.239554 0.124816 0.087740
v -0.264471 0.140922 0.111394
v -0.194647 0.070809 0.083116
v -0.221041 0.086500 0.087240
v -0.247213 0.098617 0.099012
v -0.274411 0.111247 0.124538
v -0.144297 0.193961 0.072032
v -0.139852 0.218873 0.061063
v -0.135666 0.238011 0.051708
v -0.128506 0.252402 0.046220
v -0.119220 0.262717 0.043618
v -0.108678 0.269694 0.042828
v -0.097969 0.274361 0.043278
v -0.087316 0.277086 0.044034
v -0.077059 0.278396 0.045003
v -0.065580 0.278195 0.046355
v -0.167018 0.201668 0.084687
v -0.156239 0.227062 0.076086
v -0.147521 0.246649 0.065579
v -0.138097 0.261293 0.058226
v -0.126804 0.272133 0.053880
v -0.115041 0.279564 0.052276
v -0.102581 0.284583 0.051633
v -0.090180 0.287329 0.051856
v -0.077766 0.288342 0.052626
v -0.064464 0.287474 0.054353
v -0.194422 0.212167 0.087924
v -0.178362 0.238361 0.085350
v -0.163875 0.258964 0.075103
v -0.150176 0.274256 0.066250
v -0.136250 0.285465 0.061096
v -0.122055 0.293080 0.058379
v -0.107788 0.298334 0.057101
v -0.093637 0.301215 0.057191
v -0.079590 0.301952 0.058286
v -0.065154 0.299959 0.060472
v -0.224840 0.224802 0.087061
v -0.204222 0.252498 0.087135
v -0.183185 0.274803 0.078632
v -0.164768 0.290786 0.069347
v -0.147054 0.302076 0.063614
v -0.129969 0.309740 0.060527
v -0.113306 0.315093 0.059271
v -0.097446 0.318270 0.059454
v -0.081798 0.319101 0.060748
v -0.066347 0.316899 0.063386
v -0.119070 0.185478 0.022329
v -0.119827 0.185281 -0.007668
v -0.123485 0.209341 0.019536
v -0.122880 0.209261 -0.004509
v -0.122161 0.228189 0.018098
v -0.122238 0.228394 -0.001697
v -0.117949 0.242640 0.017117
v -0.118687 0.243750 -0.000023
v -0.111127 0.253142 0.016777
v -0.112083 0.254664 0.000859
v -0.102324 0.259556 0.017070
v -0.103246 0.261254 0.001091
v -0.092666 0.263472 0.017794
v -0.093804 0.265048 0.000818
v -0.083195 0.265199 0.018463
v -0.084212 0.266588 0.000216
v -0.073365 0.264845 0.018366
v -0.073778 0.265939 -0.000852
v -0.061439 0.262009 0.017600
v -0.061980 0.262441 -0.002442
v -0.088984 0.133286 0.023584
v -0.070468 0.112255 0.021561
v -0.052119 0.093944 0.020268
v -0.034829 0.076166 0.019260
v -0.017971 0.059044 0.018042
v -0.089944 0.132820 -0.011685
v -0.071261 0.112127 -0.011589
v -0.053002 0.094352 -0.011599
v -0.035410 0.077203 -0.011537
v -0.018528 0.060350 -0.011363
v -0.113761 0.095121 0.076000
v -0.129898 0.066439 0.082680
v -0.144448 0.040304 0.070387
v -0.093140 0.076797 0.070176
v -0.108680 0.050400 0.078840
v -0.123525 0.026634 0.067228
v -0.074462 0.059663 0.066675
v -0.089861 0.035176 0.075124
v -0.104772 0.013487 0.064802
v -0.056667 0.042748 0.064278
v -0.072700 0.020099 0.072200
v -0.087665 0.000513 0.062798
v -0.039668 0.024786 0.062604
v -0.057027 0.004488 0.069687
v -0.072005 -0.012718 0.061138
v -0.163880 0.003105 0.019117
v -0.163620 0.003440 -0.010828
v -0.144395 -0.006652 0.018938
v -0.144366 -0.005884 -0.011160
v -0.126710 -0.015659 0.018201
v -0.127720 -0.015726 -0.011524
v -0.111531 -0.025341 0.017754
v -0.113182 -0.026190 -0.011975
v -0.098264 -0.035634 0.017754
v -0.100596 -0.037087 -0.012683
v -0.205503 0.017596 0.013061
v -0.210861 0.001298 0.014093
v -0.208823 -0.018882 0.015936
v -0.205774 -0.040769 0.017427
v -0.200507 -0.064112 0.018481
v -0.195016 -0.089320 0.019060
v -0.189536 -0.115256 0.018981
v -0.185016 -0.141577 0.018540
v -0.180950 -0.166391 0.017658
v -0.176547 -0.188701 0.016710
v -0.171350 -0.206895 0.015764
v -0.161525 -0.218584 0.015501
v -0.205489 0.018064 -0.004573
v -0.210264 0.001073 -0.005179
v -0.208199 -0.019435 -0.007004
v -0.205413 -0.040931 -0.008708
v -0.200137 -0.064279 -0.010100
v -0.194509 -0.089219 -0.011175
v -0.189205 -0.115181 -0.012172
v -0.184430 -0.141335 -0.012773
v -0.180149 -0.166297 -0.013217
v -0.176315 -0.188641 -0.013262
v -0.171355 -0.207435 -0.012973
v -0.160716 -0.219887 -0.012770
v -0.224972 0.033001 0.058994
v -0.232019 0.040880 0.091587
v -0.247164 0.048567 0.123896
v -0.288625 0.049958 0.121214
v -0.222745 0.009682 0.065228
v -0.225731 0.017133 0.100645
v -0.250296 0.020483 0.128021
v -0.286263 0.019988 0.114928
v -0.216128 -0.013115 0.072116
v -0.220851 -0.007751 0.108372
v -0.251984 -0.007945 0.129780
v -0.281925 -0.009137 0.110528
v -0.210079 -0.036915 0.077867
v -0.216285 -0.033509 0.114494
v -0.251528 -0.036557 0.129980
v -0.277378 -0.038243 0.107791
v -0.204149 -0.061906 0.082025
v -0.212376 -0.060641 0.118828
v -0.249601 -0.065023 0.129914
v -0.273048 -0.067180 0.105967
v -0.199289 -0.088530 0.084519
v -0.208598 -0.088324 0.121322
v -0.246651 -0.093525 0.130035
v -0.268491 -0.096445 0.105135
v -0.194646 -0.115501 0.085561
v -0.204534 -0.116386 0.122411
v -0.242496 -0.122139 0.130089
v -0.264187 -0.125757 0.104796
v -0.189603 -0.142757 0.085784
v -0.200079 -0.144345 0.122831
v -0.238359 -0.150538 0.130105
v -0.259822 -0.154860 0.104883
v -0.185189 -0.169429 0.085227
v -0.195730 -0.171677 0.122558
v -0.234199 -0.178466 0.130234
v -0.255676 -0.183559 0.104824
v -0.181531 -0.195084 0.084284
v -0.191419 -0.198458 0.121975
v -0.229932 -0.206120 0.130287
v -0.251700 -0.211808 0.104677
v -0.178373 -0.219854 0.082975
v -0.187901 -0.224700 0.120793
v -0.225583 -0.233448 0.130147
v -0.247725 -0.239410 0.103961
v -0.174988 -0.242786 0.081837
v -0.184455 -0.250124 0.119188
v -0.221218 -0.260171 0.129101
v -0.243580 -0.266158 0.102642
v -0.315835 0.199719 0.076414
v -0.315610 0.202113 0.023464
v -0.314929 0.201834 -0.025958
v -0.313726 0.198341 -0.078870
v -0.309282 0.158222 0.063994
v -0.309165 0.160475 0.019643
v -0.308535 0.160005 -0.022799
v -0.307719 0.156718 -0.067923
v -0.303587 0.123960 0.053055
v -0.303486 0.125119 0.016395
v -0.302945 0.124431 -0.019701
v -0.302221 0.121849 -0.058036
v -0.264013 0.236875 0.051696
v -0.245593 0.271314 0.051259
v -0.222411 0.302490 0.050009
v -0.195027 0.324446 0.047604
v -0.169392 0.338306 0.044765
v -0.145560 0.345982 0.042373
v -0.123523 0.351348 0.040946
v -0.102967 0.354660 0.040064
v -0.083159 0.356669 0.040062
v -0.063390 0.356635 0.040172
v -0.279478 0.255214 0.019429
v -0.251323 0.271797 0.017526
v -0.229782 0.306210 0.018419
v -0.201480 0.331187 0.019327
v -0.174619 0.346642 0.019346
v -0.148952 0.355194 0.018912
v -0.125942 0.360249 0.018403
v -0.103927 0.363591 0.018299
v -0.082786 0.365186 0.018280
v -0.060973 0.364354 0.018136
v -0.279054 0.255839 -0.019014
v -0.251196 0.273330 -0.016132
v -0.228802 0.307401 -0.014272
v -0.200535 0.332562 -0.011648
v -0.173490 0.347013 -0.009050
v -0.148152 0.355382 -0.007529
v -0.125398 0.360471 -0.006376
v -0.103970 0.363750 -0.005753
v -0.082771 0.365042 -0.005564
v -0.061144 0.364371 -0.005561
v -0.261777 0.238374 -0.052266
v -0.243412 0.274089 -0.049295
v -0.220095 0.306938 -0.046537
v -0.191799 0.327932 -0.040398
v -0.166267 0.339818 -0.034945
v -0.143232 0.347125 -0.030910
v -0.122176 0.351904 -0.028386
v -0.102705 0.355080 -0.027119
v -0.083448 0.356765 -0.026986
v -0.063805 0.356567 -0.027423
v -0.292876 0.058035 0.042317
v -0.292804 0.058937 0.013729
v -0.292434 0.058424 -0.015001
v -0.291863 0.056630 -0.043569
v -0.287650 0.026073 0.041743
v -0.287505 0.026844 0.013816
v -0.287130 0.026531 -0.013563
v -0.286712 0.025048 -0.041438
v -0.282772 -0.004896 0.041750
v -0.282657 -0.004302 0.014566
v -0.282302 -0.004473 -0.012347
v -0.281832 -0.005528 -0.039889
v -0.277963 -0.035080 0.041784
v -0.277801 -0.034609 0.014925
v -0.277463 -0.034961 -0.011618
v -0.277080 -0.035758 -0.038759
v -0.273204 -0.065229 0.041723
v -0.272989 -0.064958 0.015161
v -0.272745 -0.065051 -0.010836
v -0.272322 -0.065516 -0.037515
v -0.268465 -0.095882 0.041844
v -0.268274 -0.095515 0.015629
v -0.268043 -0.095546 -0.010232
v -0.267676 -0.095707 -0.036608
v -0.263936 -0.126423 0.042164
v -0.263659 -0.126538 0.016086
v -0.263310 -0.126196 -0.009808
v -0.263052 -0.125843 -0.035999
v -0.259299 -0.156498 0.042448
v -0.258955 -0.156786 0.016514
v -0.258670 -0.156533 -0.009321
v -0.258404 -0.156091 -0.035249
v -0.254620 -0.186087 0.042418
v -0.254391 -0.186308 0.016590
v -0.254068 -0.186037 -0.008605
v -0.253786 -0.185662 -0.034328
v -0.250284 -0.214721 0.041712
v -0.250023 -0.214443 0.016718
v -0.249736 -0.214288 -0.007971
v -0.249536 -0.214233 -0.032989
v -0.246095 -0.241663 0.040308
v -0.245933 -0.241278 0.016262
v -0.245545 -0.241172 -0.007347
v -0.245189 -0.241494 -0.031119
v -0.242041 -0.267456 0.038555
v -0.241939 -0.266671 0.015756
v -0.241657 -0.266502 -0.006992
v -0.241239 -0.266944 -0.029186
v -0.160223 0.129068 -0.081364
v -0.176216 0.098947 -0.081435
v -0.191716 0.072523 -0.071955
v -0.188377 0.141806 -0.086038
v -0.203551 0.113180 -0.085786
v -0.217858 0.088190 -0.079634
v -0.219003 0.154771 -0.089698
v -0.234009 0.126249 -0.089979
v -0.241394 0.099316 -0.097587
v -0.253332 0.169237 -0.097676
v -0.261079 0.139307 -0.115544
v -0.270662 0.107734 -0.123756
v -0.111379 0.096421 -0.067530
v -0.091935 0.078873 -0.062959
v -0.073772 0.061986 -0.060115
v -0.056743 0.045430 -0.058255
v -0.040215 0.027545 -0.057033
v -0.128692 0.067429 -0.073222
v -0.108589 0.052103 -0.069554
v -0.090337 0.037259 -0.066737
v -0.073265 0.022128 -0.064292
v -0.057990 0.006556 -0.062550
v -0.143728 0.041063 -0.059518
v -0.123585 0.028411 -0.056861
v -0.105280 0.015390 -0.055076
v -0.088405 0.002365 -0.053635
v -0.072534 -0.011095 -0.052777
v -0.138696 0.194341 -0.062531
v -0.159704 0.202461 -0.080286
v -0.187359 0.213584 -0.088367
v -0.220173 0.227279 -0.091955
v -0.136120 0.218892 -0.050091
v -0.150145 0.227739 -0.069042
v -0.171557 0.240075 -0.081394
v -0.197812 0.255789 -0.086897
v -0.133196 0.238081 -0.040327
v -0.143422 0.246926 -0.056565
v -0.158285 0.260446 -0.068625
v -0.177344 0.277554 -0.073929
v -0.127376 0.252710 -0.033496
v -0.135190 0.261633 -0.047629
v -0.146122 0.274935 -0.057501
v -0.160058 0.292412 -0.061711
v -0.118932 0.263380 -0.029969
v -0.125060 0.272342 -0.042514
v -0.133179 0.285656 -0.051072
v -0.143618 0.303065 -0.053663
v -0.109313 0.270533 -0.028673
v -0.114085 0.279842 -0.039956
v -0.120116 0.293253 -0.047453
v -0.127491 0.310508 -0.048943
v -0.099296 0.275658 -0.028687
v -0.102763 0.284969 -0.039089
v -0.106956 0.298336 -0.045834
v -0.112051 0.315807 -0.046579
v -0.089462 0.278947 -0.029876
v -0.091468 0.288119 -0.038949
v -0.094157 0.301349 -0.045347
v -0.097057 0.318970 -0.046605
v -0.079087 0.280241 -0.030971
v -0.079659 0.289210 -0.039353
v -0.080453 0.301922 -0.045552
v -0.082322 0.320209 -0.047720
v -0.067732 0.278364 -0.031804
v -0.066780 0.287354 -0.040487
v -0.066591 0.299627 -0.046371
v -0.067560 0.317270 -0.049408
v -0.223075 0.032324 -0.048181
v -0.218964 0.008157 -0.056180
v -0.213299 -0.014466 -0.063087
v -0.207336 -0.037342 -0.069079
v -0.200596 -0.061236 -0.073907
v -0.194514 -0.086631 -0.077386
v -0.189986 -0.113289 -0.080151
v -0.185542 -0.140361 -0.082012
v -0.181467 -0.166834 -0.083291
v -0.178380 -0.192341 -0.083721
v -0.175263 -0.216483 -0.084340
v -0.171705 -0.239565 -0.085236
v -0.227924 0.039990 -0.082964
v -0.221857 0.015611 -0.091508
v -0.215976 -0.008831 -0.099130
v -0.212216 -0.033895 -0.105480
v -0.208522 -0.059823 -0.110492
v -0.205379 -0.086508 -0.113951
v -0.202116 -0.114080 -0.116683
v -0.198459 -0.141478 -0.118469
v -0.194682 -0.168792 -0.119594
v -0.191614 -0.195258 -0.120596
v -0.188383 -0.220952 -0.121472
v -0.185639 -0.246766 -0.122385
v -0.241745 0.046025 -0.116716
v -0.244778 0.018332 -0.120080
v -0.246672 -0.009224 -0.121524
v -0.247276 -0.036713 -0.122874
v -0.246396 -0.064352 -0.124058
v -0.244577 -0.092218 -0.124862
v -0.242214 -0.120421 -0.125493
v -0.239191 -0.148564 -0.126283
v -0.235937 -0.176459 -0.126181
v -0.233193 -0.203832 -0.127006
v -0.230200 -0.230674 -0.126934
v -0.227683 -0.257696 -0.126948
v -0.284671 0.046658 -0.122031
v -0.283002 0.017381 -0.114640
v -0.279611 -0.010655 -0.109023
v -0.275174 -0.038942 -0.105307
v -0.270694 -0.067234 -0.102616
v -0.266320 -0.095708 -0.100803
v -0.261712 -0.124466 -0.099338
v -0.257264 -0.153016 -0.098308
v -0.253077 -0.181694 -0.097236
v -0.249053 -0.209487 -0.096294
v -0.244938 -0.236771 -0.094839
v -0.241086 -0.263218 -0.092711
v -0.036458 -0.074591 0.051931
v -0.016362 -0.074666 0.060043
v 0.008331 -0.071548 0.056895
v -0.040515 -0.062718 0.053309
v -0.020748 -0.058882 0.062103
v 0.002432 -0.052595 0.058885
v -0.045338 -0.051056 0.055223
v -0.026500 -0.043539 0.064008
v -0.004247 -0.034376 0.060437
v -0.050837 -0.039104 0.057356
v -0.033907 -0.028062 0.065789
v -0.012635 -0.015758 0.061373
v -0.032352 -0.108598 0.046921
v -0.035962 -0.131118 0.043134
v -0.043484 -0.154954 0.040280
v -0.053933 -0.178744 0.037661
v -0.067063 -0.200768 0.036669
v -0.082607 -0.220070 0.038731
v -0.098998 -0.237320 0.043071
v -0.115428 -0.252710 0.048180
v -0.131172 -0.265354 0.054937
v -0.014333 -0.113503 0.055377
v -0.019644 -0.136618 0.052355
v -0.028561 -0.161324 0.049465
v -0.040342 -0.186398 0.046651
v -0.054102 -0.210354 0.045128
v -0.069948 -0.232172 0.046750
v -0.086918 -0.251776 0.050879
v -0.104264 -0.269656 0.055967
v -0.122133 -0.286425 0.061912
v 0.009806 -0.115980 0.052657
v 0.001004 -0.140783 0.051878
v -0.010500 -0.167783 0.051099
v -0.024165 -0.194962 0.050180
v -0.039471 -0.220993 0.049720
v -0.056229 -0.245520 0.050877
v -0.074383 -0.268697 0.054666
v -0.093374 -0.290518 0.059079
v -0.113321 -0.311485 0.064090
v -0.063620 -0.108198 0.013810
v -0.065298 -0.107764 -0.010156
v -0.064443 -0.126316 0.012895
v -0.065222 -0.126256 -0.009001
v -0.066386 -0.146778 0.011836
v -0.067029 -0.146890 -0.007648
v -0.073185 -0.168170 0.010505
v -0.073711 -0.167778 -0.007364
v -0.084845 -0.186880 0.009983
v -0.085927 -0.186258 -0.007967
v -0.098873 -0.201669 0.010616
v -0.100167 -0.201698 -0.008383
v -0.113338 -0.212430 0.011890
v -0.115488 -0.212918 -0.009399
v -0.126485 -0.219166 0.013486
v -0.133845 -0.222021 -0.012025
v -0.138391 -0.223207 0.015177
v -0.138475 -0.223744 -0.013383
v -0.068674 -0.080430 0.015863
v -0.071805 -0.071604 0.016112
v -0.075866 -0.063199 0.016782
v -0.080987 -0.054915 0.017615
v -0.070453 -0.081435 -0.011326
v -0.074158 -0.072486 -0.011564
v -0.078329 -0.064246 -0.011968
v -0.083367 -0.056202 -0.012643
v 0.054087 -0.054857 0.039300
v 0.076706 -0.048424 0.050085
v 0.097849 -0.034212 0.047171
v 0.049438 -0.039515 0.042699
v 0.070889 -0.031374 0.051943
v 0.091388 -0.018730 0.044452
v 0.042869 -0.018605 0.042589
v 0.066359 -0.010719 0.050386
v 0.086235 -0.006155 0.040495
v 0.038653 0.002932 0.041784
v 0.064075 0.008141 0.046311
v 0.081262 0.005658 0.037178
v 0.062842 -0.074888 0.021325
v 0.064905 -0.077913 0.007965
v 0.064265 -0.076785 -0.006554
v 0.061839 -0.073103 -0.020282
v 0.088244 -0.074285 0.027834
v 0.090563 -0.077713 0.009069
v 0.089845 -0.075814 -0.009775
v 0.087084 -0.070585 -0.027412
v 0.112950 -0.060587 0.029797
v 0.116212 -0.066449 0.010525
v 0.114769 -0.064273 -0.010446
v 0.111228 -0.056927 -0.029178
v 0.040435 -0.120765 0.027451
v 0.031461 -0.145432 0.026636
v 0.016578 -0.177125 0.027464
v 0.001349 -0.207960 0.027786
v -0.015168 -0.238130 0.028798
v -0.033738 -0.267845 0.030370
v -0.053423 -0.296632 0.032167
v -0.074486 -0.323636 0.034531
v -0.095975 -0.348246 0.037502
v 0.046177 -0.122704 0.010233
v 0.037049 -0.146816 0.010393
v 0.022487 -0.179437 0.010377
v 0.007387 -0.211035 0.010484
v -0.009289 -0.242109 0.010759
v -0.027884 -0.272618 0.011152
v -0.048490 -0.301369 0.011633
v -0.069718 -0.328397 0.012236
v -0.091358 -0.353147 0.013326
v 0.045198 -0.122288 -0.007584
v 0.035751 -0.146648 -0.007730
v 0.021065 -0.178686 -0.007700
v 0.006022 -0.209998 -0.008032
v -0.010421 -0.241453 -0.008602
v -0.028927 -0.271836 -0.009509
v -0.049478 -0.300516 -0.009912
v -0.070644 -0.327547 -0.010867
v -0.092523 -0.352368 -0.011809
v 0.037629 -0.119539 -0.023556
v 0.028057 -0.144315 -0.022996
v 0.013236 -0.175237 -0.023666
v -0.001266 -0.205938 -0.024747
v -0.017415 -0.236422 -0.026448
v -0.035513 -0.266491 -0.028076
v -0.055325 -0.294876 -0.030129
v -0.076071 -0.321871 -0.032616
v -0.097503 -0.347311 -0.035264
v 0.041294 0.065467 0.027600
v 0.066291 0.044148 0.017410
v 0.081314 0.026707 0.011360
v 0.040048 0.063828 -0.017565
v 0.063992 0.043771 -0.010515
v 0.079200 0.027143 -0.006557
v -0.038067 -0.072805 -0.046212
v -0.042342 -0.061376 -0.046907
v -0.046940 -0.049558 -0.048389
v -0.051738 -0.037765 -0.050261
v -0.018301 -0.072625 -0.054998
v -0.022498 -0.056705 -0.056628
v -0.028127 -0.041266 -0.058136
v -0.035213 -0.025681 -0.059308
v 0.006424 -0.069391 -0.055582
v 0.001143 -0.050239 -0.057711
v -0.005572 -0.031662 -0.058280
v -0.013722 -0.012902 -0.058040
v -0.034682 -0.107206 -0.042245
v -0.016990 -0.112272 -0.050855
v 0.005872 -0.114698 -0.050270
v -0.038344 -0.129701 -0.039486
v -0.022289 -0.135448 -0.048206
v -0.002407 -0.140094 -0.049168
v -0.045666 -0.153226 -0.037454
v -0.030924 -0.159815 -0.046366
v -0.013379 -0.166400 -0.047907
v -0.056530 -0.176890 -0.036491
v -0.042844 -0.184583 -0.045536
v -0.026517 -0.192994 -0.047904
v -0.070008 -0.198548 -0.036984
v -0.056861 -0.208042 -0.046012
v -0.041615 -0.218957 -0.049215
v -0.085519 -0.218248 -0.039191
v -0.072724 -0.230094 -0.047832
v -0.058555 -0.244171 -0.050848
v -0.101902 -0.235922 -0.042705
v -0.089136 -0.250370 -0.050914
v -0.075937 -0.267446 -0.053085
v -0.117120 -0.251286 -0.046985
v -0.105483 -0.268753 -0.055068
v -0.093811 -0.289814 -0.058464
v -0.132109 -0.264617 -0.053074
v -0.122788 -0.286384 -0.061537
v -0.112645 -0.311264 -0.066083
v 0.053045 -0.051522 -0.038423
v 0.048200 -0.035124 -0.041936
v 0.042216 -0.014070 -0.041687
v 0.037653 0.007093 -0.040034
v 0.076728 -0.044514 -0.049958
v 0.070717 -0.024498 -0.051971
v 0.065760 -0.004986 -0.049071
v 0.062664 0.013066 -0.043060
v 0.097547 -0.029073 -0.046072
v 0.090761 -0.013214 -0.042280
v 0.084944 -0.001603 -0.036746
v 0.079639 0.008375 -0.031081
v -0.005565 0.245140 -0.003891
v -0.004967 0.241608 0.013082
v 0.057518 0.261150 -0.003302
v 0.071716 0.263027 -0.003056
v 0.082847 0.261510 -0.003031
v 0.093842 0.257150 -0.003600
v 0.104125 0.247120 -0.005136
v 0.104634 0.229600 -0.009750
v 0.098475 0.201193 -0.016015
v 0.120680 0.170829 -0.013691
v 0.148578 0.157719 -0.008488
v 0.164161 0.144421 -0.004892
v 0.161736 0.128113 -0.004793
v 0.148007 0.117078 -0.006845
v 0.135253 0.104101 -0.007684
v 0.133545 0.086777 -0.006020
v 0.058622 0.259717 0.011943
v 0.072108 0.261428 0.011173
v 0.082852 0.259421 0.010933
v 0.093227 0.254744 0.010931
v 0.103027 0.245158 0.011046
v 0.105317 0.228930 0.013829
v 0.101043 0.202023 0.022310
v 0.122651 0.172062 0.020497
v 0.149127 0.158143 0.013922
v 0.165105 0.144795 0.008645
v 0.163219 0.128325 0.008867
v 0.149510 0.117161 0.012546
v 0.135797 0.104570 0.015433
v 0.133703 0.087062 0.013482
v 0.061339 0.288010 -0.029869
v 0.075811 0.288968 -0.027048
v 0.090159 0.287062 -0.027046
v 0.105216 0.281157 -0.029085
v 0.120857 0.269410 -0.033046
v 0.136006 0.251814 -0.040162
v 0.150556 0.227501 -0.049760
v 0.166105 0.196206 -0.054202
v 0.179048 0.164719 -0.045802
v 0.186120 0.145111 -0.027717
v 0.184178 0.125936 -0.029259
v 0.177933 0.105609 -0.036902
v 0.169839 0.086919 -0.035788
v 0.161813 0.072258 -0.030861
v 0.036606 0.272360 -0.055252
v 0.027601 0.261566 -0.071113
v 0.021831 0.246730 -0.088191
v 0.020738 0.225710 -0.102259
v 0.022007 0.200880 -0.111982
v 0.025264 0.172905 -0.116383
v 0.034207 0.146981 -0.116492
v 0.046705 0.123257 -0.111980
v 0.064320 0.102126 -0.104472
v 0.086716 0.083517 -0.093300
v 0.105931 0.069839 -0.080396
v 0.122427 0.060557 -0.065793
v 0.137787 0.055795 -0.048864
v -0.007089 0.244491 -0.036574
v -0.008208 0.236504 -0.050642
v -0.009656 0.226894 -0.067250
v -0.008575 0.211700 -0.083136
v -0.004088 0.190305 -0.093617
v 0.003523 0.164891 -0.099415
v 0.014436 0.139496 -0.099578
v 0.028310 0.115069 -0.095922
v 0.047433 0.093017 -0.088656
v 0.069604 0.073793 -0.077269
v 0.087109 0.060699 -0.064797
v 0.099651 0.052481 -0.052023
v 0.106329 0.049822 -0.037311
v -0.004458 0.232067 0.044622
v -0.003688 0.228866 0.059559
v -0.003167 0.223736 0.074817
v -0.001941 0.207622 0.088583
v 0.002477 0.173442 0.095062
v 0.010571 0.140130 0.098693
v 0.023727 0.115451 0.096975
v 0.039949 0.093351 0.091998
v 0.056594 0.074156 0.085590
v 0.075334 0.059358 0.076927
v 0.093872 0.048181 0.065109
v 0.105419 0.043155 0.053020
v 0.109212 0.043830 0.040851
v 0.040605 0.271443 0.065277
v 0.034454 0.259829 0.081097
v 0.029774 0.243315 0.096045
v 0.025576 0.217469 0.109517
v 0.024870 0.179995 0.118935
v 0.030440 0.146092 0.121441
v 0.041106 0.121109 0.119843
v 0.056219 0.099682 0.114169
v 0.073206 0.080760 0.106978
v 0.091288 0.065248 0.096535
v 0.111559 0.053893 0.082386
v 0.129073 0.049620 0.068272
v 0.143144 0.050176 0.052674
v 0.063125 0.286406 0.036009
v 0.077193 0.287313 0.031587
v 0.091381 0.285109 0.030968
v 0.106403 0.279069 0.031497
v 0.122483 0.268169 0.033788
v 0.138135 0.251454 0.039547
v 0.153452 0.228619 0.048483
v 0.168881 0.198689 0.054707
v 0.180982 0.167117 0.048636
v 0.187765 0.145435 0.031779
v 0.187318 0.125400 0.032610
v 0.181819 0.104559 0.039928
v 0.174163 0.086233 0.039657
v 0.165630 0.071221 0.034892
v 0.015622 0.342036 -0.026302
v -0.013477 0.348740 -0.028641
v 0.017175 0.349739 -0.005396
v -0.011003 0.356545 -0.005757
v 0.017961 0.349782 0.016513
v -0.010155 0.356627 0.017800
v 0.017700 0.341491 0.037509
v -0.011368 0.348649 0.040499
v 0.009360 0.311541 -0.072076
v 0.006966 0.294063 -0.094173
v 0.005495 0.269995 -0.114370
v 0.006839 0.238875 -0.130571
v 0.010095 0.205575 -0.140149
v 0.016660 0.171628 -0.142210
v 0.027853 0.140792 -0.139704
v 0.041438 0.112923 -0.132233
v 0.059780 0.088399 -0.123114
v 0.083817 0.066579 -0.111059
v 0.105768 0.050258 -0.096871
v 0.124817 0.037294 -0.081261
v 0.141738 0.026164 -0.062704
v -0.015424 0.314723 -0.074512
v -0.014887 0.295616 -0.094813
v -0.014052 0.270762 -0.115174
v -0.011782 0.239254 -0.132731
v -0.005179 0.203964 -0.144645
v 0.004618 0.168156 -0.147825
v 0.017563 0.135369 -0.144752
v 0.032165 0.105488 -0.136134
v 0.052216 0.080025 -0.124945
v 0.076547 0.057639 -0.110972
v 0.098633 0.041698 -0.095735
v 0.116037 0.027711 -0.079748
v 0.128546 0.014298 -0.061108
v 0.064809 0.330493 -0.018183
v 0.065020 0.336030 -0.003115
v 0.065562 0.335337 0.013165
v 0.065990 0.327977 0.027595
v 0.082513 0.326452 -0.015754
v 0.084325 0.330652 -0.002687
v 0.084404 0.330014 0.011797
v 0.082861 0.324023 0.025139
v 0.100727 0.320244 -0.016024
v 0.103250 0.324209 -0.003400
v 0.103261 0.323540 0.010334
v 0.100531 0.318825 0.022470
v 0.121014 0.311585 -0.018779
v 0.124526 0.316583 -0.005291
v 0.124471 0.315845 0.009615
v 0.121018 0.309586 0.022611
v 0.143447 0.300125 -0.022963
v 0.148547 0.306441 -0.007542
v 0.148677 0.305886 0.010101
v 0.143135 0.297618 0.024652
v 0.169063 0.283690 -0.029621
v 0.177219 0.292802 -0.010826
v 0.176886 0.292849 0.011564
v 0.168357 0.283133 0.029767
v 0.198661 0.261449 -0.038892
v 0.212318 0.272337 -0.015125
v 0.212748 0.273623 0.015005
v 0.198753 0.262491 0.038499
v 0.226526 0.222586 -0.044881
v 0.247595 0.231922 -0.017840
v 0.248120 0.232994 0.018505
v 0.228117 0.225010 0.046436
v 0.230633 0.171898 -0.034967
v 0.246504 0.172483 -0.012877
v 0.247771 0.173053 0.015396
v 0.232420 0.173249 0.038194
v 0.211854 0.145152 -0.015798
v 0.216755 0.144829 -0.003798
v 0.217717 0.144635 0.008238
v 0.213883 0.144767 0.020640
v 0.214177 0.123547 -0.016677
v 0.219100 0.123770 -0.004890
v 0.219466 0.123347 0.008001
v 0.214980 0.123008 0.019955
v 0.222365 0.092357 -0.025471
v 0.232352 0.091984 -0.009284
v 0.233256 0.092061 0.010786
v 0.224951 0.092896 0.028185
v 0.208725 0.064465 -0.022211
v 0.216542 0.060264 -0.008073
v 0.218056 0.059778 0.009821
v 0.212605 0.062726 0.025457
v 0.189633 0.051718 -0.016920
v 0.193414 0.047765 -0.005233
v 0.194543 0.046958 0.007809
v 0.192340 0.050017 0.020554
v 0.015577 0.310776 0.085924
v -0.009117 0.312644 0.088254
v 0.013914 0.289333 0.106499
v -0.007131 0.290382 0.106985
v 0.011401 0.263377 0.121843
v -0.006580 0.264750 0.122351
v 0.010157 0.226836 0.135518
v -0.006505 0.227995 0.138324
v 0.011939 0.181758 0.143367
v -0.000794 0.180654 0.147183
v 0.018843 0.141435 0.143468
v 0.008122 0.138259 0.147064
v 0.032157 0.112716 0.139075
v 0.023175 0.107035 0.142323
v 0.048286 0.087400 0.132144
v 0.039967 0.079936 0.133648
v 0.066723 0.065575 0.122190
v 0.059954 0.058344 0.121739
v 0.088233 0.048511 0.109992
v 0.082098 0.041107 0.108599
v 0.111387 0.034079 0.094630
v 0.105436 0.025460 0.092944
v 0.132060 0.023320 0.078474
v 0.123680 0.013977 0.075246
v 0.147421 0.016439 0.061911
v 0.133924 0.004668 0.059066
v -0.044136 0.263527 -0.048161
v -0.045492 0.272626 -0.054681
v -0.043982 0.282422 -0.060135
v -0.040918 0.293277 -0.064347
v -0.039457 0.254646 -0.059919
v -0.042867 0.260492 -0.068188
v -0.042760 0.269020 -0.075468
v -0.039662 0.278992 -0.081350
v -0.037904 0.236137 -0.076096
v -0.041737 0.241047 -0.084381
v -0.041970 0.248529 -0.093361
v -0.038298 0.257232 -0.101726
v -0.031614 0.212558 -0.090724
v -0.035693 0.216382 -0.099455
v -0.036756 0.221572 -0.109242
v -0.033556 0.227951 -0.118831
v -0.024503 0.187330 -0.101060
v -0.028726 0.188502 -0.110217
v -0.029366 0.191329 -0.120758
v -0.026207 0.195379 -0.130887
v -0.014575 0.158914 -0.106936
v -0.018232 0.157919 -0.115902
v -0.018467 0.158671 -0.126197
v -0.015007 0.160886 -0.136423
v -0.001163 0.130767 -0.106225
v -0.004058 0.128142 -0.115183
v -0.003772 0.126984 -0.124877
v -0.000182 0.127711 -0.134716
v 0.015707 0.103748 -0.102154
v 0.014066 0.100347 -0.109351
v 0.014650 0.098150 -0.118122
v 0.017830 0.098083 -0.126946
v 0.037518 0.079768 -0.094894
v 0.036744 0.076105 -0.100733
v 0.037667 0.073745 -0.107412
v 0.040149 0.072781 -0.114495
v 0.061727 0.058643 -0.083334
v 0.061597 0.055360 -0.088345
v 0.063106 0.053151 -0.094238
v 0.066023 0.052208 -0.100512
v 0.081107 0.045206 -0.070730
v 0.081663 0.041716 -0.075031
v 0.083650 0.039021 -0.079647
v 0.086781 0.037272 -0.084463
v 0.094455 0.035400 -0.057260
v 0.095336 0.031298 -0.060881
v 0.097288 0.027586 -0.064866
v 0.100901 0.024850 -0.069194
v 0.101160 0.025575 -0.042240
v 0.102660 0.021246 -0.044876
v 0.105413 0.017504 -0.047657
v 0.108827 0.014445 -0.050534
v -0.035545 0.265815 0.060350
v -0.030059 0.254382 0.071750
v -0.026159 0.239297 0.084117
v -0.023289 0.212227 0.097286
v -0.018023 0.171694 0.103112
v -0.007073 0.134472 0.106142
v 0.007932 0.105289 0.103127
v 0.025643 0.079755 0.098415
v 0.045666 0.059308 0.091696
v 0.067440 0.042876 0.082451
v 0.089302 0.030816 0.068981
v 0.102285 0.023271 0.053978
v 0.108250 0.017440 0.041867
v -0.036045 0.274145 0.066500
v -0.031007 0.260534 0.079191
v -0.027851 0.242970 0.092556
v -0.026195 0.214255 0.105751
v -0.021633 0.172737 0.113270
v -0.010635 0.133460 0.115398
v 0.004748 0.102167 0.111890
v 0.023623 0.075781 0.105947
v 0.045146 0.055126 0.098087
v 0.067853 0.038905 0.087421
v 0.090018 0.026803 0.072834
v 0.105469 0.020228 0.058009
v 0.109914 0.013624 0.043164
v -0.036134 0.282710 0.072659
v -0.031303 0.267930 0.086269
v -0.029109 0.248265 0.100784
v -0.027970 0.217773 0.114954
v -0.023654 0.174060 0.124247
v -0.011697 0.132896 0.125863
v 0.003951 0.100046 0.121865
v 0.023947 0.073181 0.114592
v 0.046309 0.052502 0.105002
v 0.069446 0.036014 0.093025
v 0.091855 0.023486 0.077197
v 0.107338 0.016878 0.061062
v 0.111842 0.010464 0.044757
v -0.034073 0.292258 0.077774
v -0.029344 0.276713 0.092663
v -0.027790 0.255636 0.109009
v -0.027311 0.222430 0.124199
v -0.022024 0.175968 0.135398
v -0.009390 0.133136 0.136219
v 0.007046 0.099939 0.131990
v 0.027017 0.072796 0.123223
v 0.049061 0.051854 0.111927
v 0.072404 0.035129 0.098823
v 0.094788 0.021170 0.081868
v 0.110247 0.013988 0.064546
v 0.114868 0.009222 0.051455
v 0.169081 0.007373 0.026126
v 0.153842 -0.016359 0.027252
v 0.172549 0.005646 0.008332
v 0.158771 -0.019982 0.009182
v 0.171593 0.006669 -0.008967
v 0.157815 -0.018764 -0.010564
v 0.166395 0.010134 -0.026051
v 0.150935 -0.012542 -0.028334
v 0.106343 0.051566 0.011392
v 0.106355 0.052004 -0.005492
v -0.142339 -0.386201 -0.043276
v -0.138224 -0.392742 -0.014050
v -0.136870 -0.393866 0.015971
v -0.139136 -0.386976 0.045344
v -0.167492 -0.399244 -0.045307
v -0.164251 -0.407326 -0.014376
v -0.163185 -0.407617 0.017255
v -0.164365 -0.399618 0.047734
v -0.195965 -0.411628 -0.046077
v -0.193481 -0.419315 -0.014403
v -0.192481 -0.418632 0.018205
v -0.193016 -0.408973 0.048667
v -0.219529 -0.404587 -0.039508
v -0.218673 -0.411247 -0.011960
v -0.218355 -0.412259 0.017864
v -0.219115 -0.406744 0.045637
v -0.148905 -0.347191 -0.090318
v -0.175000 -0.361305 -0.097393
v -0.207068 -0.374601 -0.098688
v -0.225299 -0.370017 -0.077343
v -0.154861 -0.317832 -0.096231
v -0.178254 -0.332756 -0.113226
v -0.214449 -0.345457 -0.115024
v -0.229175 -0.343397 -0.086688
v -0.161494 -0.289324 -0.094509
v -0.181254 -0.302406 -0.120575
v -0.220443 -0.314672 -0.123255
v -0.233466 -0.315542 -0.090063
v -0.226884 -0.359471 -0.030264
v -0.226911 -0.360351 -0.007823
v -0.226919 -0.360906 0.015470
v -0.227026 -0.361416 0.037996
v -0.230383 -0.337036 -0.030950
v -0.230600 -0.337183 -0.007647
v -0.230739 -0.337771 0.015536
v -0.230810 -0.338997 0.039210
v -0.234108 -0.313682 -0.030301
v -0.234218 -0.314090 -0.007252
v -0.234361 -0.314573 0.015441
v -0.234632 -0.315171 0.038996
v -0.149306 -0.345554 0.084814
v -0.158627 -0.318138 0.086973
v -0.165381 -0.290989 0.085773
v -0.169606 -0.361324 0.097627
v -0.173935 -0.332786 0.110232
v -0.178247 -0.303461 0.115396
v -0.200430 -0.371847 0.097879
v -0.206472 -0.345153 0.114025
v -0.212347 -0.315844 0.123092
v -0.225606 -0.373987 0.085228
v -0.230781 -0.348229 0.095512
v -0.235514 -0.319704 0.100458
# 1500 vertices, 0 vertices normals

f 1 499 533
f 1 533 480
f 480 533 537
f 480 537 481
f 481 537 541
f 481 541 482
f 482 541 459
f 482 459 4
f 499 498 534
f 499 534 533
f 533 534 538
f 533 538 537
f 537 538 542
f 537 542 541
f 541 542 458
f 541 458 459
f 498 497 535
f 498 535 534
f 534 535 539
f 534 539 538
f 538 539 543
f 538 543 542
f 542 543 457
f 542 457 458
f 497 496 536
f 497 536 535
f 535 536 540
f 535 540 539
f 539 540 544
f 539 544 543
f 543 544 456
f 543 456 457
f 496 2 500
f 496 500 536
f 536 500 501
f 536 501 540
f 540 501 502
f 540 502 544
f 544 502 3
f 544 3 456
f 1 368 545
f 1 545 499
f 499 545 555
f 499 555 498
f 498 555 565
f 498 565 497
f 497 565 575
f 497 575 496
f 496 575 429
f 496 429 2
f 368 367 546
f 368 546 545
f 545 546 556
f 545 556 555
f 555 556 566
f 555 566 565
f 565 566 576
f 565 576 575
f 575 576 430
f 575 430 429
f 367 366 547
f 367 547 546
f 546 547 557
f 546 557 556
f 556 557 567
f 556 567 566
f 566 567 577
f 566 577 576
f 576 577 431
f 576 431 430
f 366 365 548
f 366 548 547
f 547 548 558
f 547 558 557
f 557 558 568
f 557 568 567
f 567 568 578
f 567 578 577
f 577 578 432
f 577 432 431
f 365 364 549
f 365 549 548
f 548 549 559
f 548 559 558
f 558 559 569
f 558 569 568
f 568 569 579
f 568 579 578
f 578 579 433
f 578 433 432
f 364 363 550
f 364 550 549
f 549 550 560
f 549 560 559
f 559 560 570
f 559 570 569
f 569 570 580
f 569 580 579
f 579 580 434
f 579 434 433
f 363 362 551
f 363 551 550
f 550 551 561
f 550 561 560
f 560 561 571
f 560 571 570
f 570 571 581
f 570 581 580
f 580 581 435
f 580 435 434
f 362 361 552
f 362 552 551
f 551 552 562
f 551 562 561
f 561 562 572
f 561 572 571
f 571 572 582
f 571 582 581
f 581 582 436
f 581 436 435
f 361 360 553
f 361 553 552
f 552 553 563
f 552 563 562
f 562 563 573
f 562 573 572
f 572 573 583
f 572 583 582
f 582 583 437
f 582 437 436
f 360 359 554
f 360 554 553
f 553 554 564
f 553 564 563
f 563 564 574
f 563 574 573
f 573 574 584
f 573 584 583
f 583 584 438
f 583 438 437
f 359 5 442
f 359 442 554
f 554 442 443
f 554 443 564
f 564 443 444
f 564 444 574
f 574 444 445
f 574 445 584
f 584 445 6
f 584 6 438
f 1 291 585
f 1 585 368
f 368 585 587
f 368 587 367
f 367 587 589
f 367 589 366
f 366 589 591
f 366 591 365
f 365 591 593
f 365 593 364
f 364 593 595
f 364 595 363
f 363 595 597
f 363 597 362
f 362 597 599
f 362 599 361
f 361 599 601
f 361 601 360
f 360 601 603
f 360 603 359
f 359 603 309
f 359 309 5
f 291 292 586
f 291 586 585
f 585 586 588
f 585 588 587
f 587 588 590
f 587 590 589
f 589 590 592
f 589 592 591
f 591 592 594
f 591 594 593
f 593 594 596
f 593 596 595
f 595 596 598
f 595 598 597
f 597 598 600
f 597 600 599
f 599 600 602
f 599 602 601
f 601 602 604
f 601 604 603
f 603 604 310
f 603 310 309
f 292 7 267
f 292 267 586
f 586 267 266
f 586 266 588
f 588 266 265
f 588 265 590
f 590 265 264
f 590 264 592
f 592 264 263
f 592 263 594
f 594 263 262
f 594 262 596
f 596 262 261
f 596 261 598
f 598 261 260
f 598 260 600
f 600 260 259
f 600 259 602
f 602 259 258
f 602 258 604
f 604 258 8
f 604 8 310
f 1 419 605
f 1 605 291
f 291 605 610
f 291 610 292
f 292 610 203
f 292 203 7
f 419 420 606
f 419 606 605
f 605 606 611
f 605 611 610
f 610 611 204
f 610 204 203
f 420 421 607
f 420 607 606
f 606 607 612
f 606 612 611
f 611 612 205
f 611 205 204
f 421 422 608
f 421 608 607
f 607 608 613
f 607 613 612
f 612 613 206
f 612 206 205
f 422 423 609
f 422 609 608
f 608 609 614
f 608 614 613
f 613 614 207
f 613 207 206
f 423 9 278
f 423 278 609
f 609 278 279
f 609 279 614
f 614 279 10
f 614 10 207
f 1 480 615
f 1 615 419
f 419 615 618
f 419 618 420
f 420 618 621
f 420 621 421
f 421 621 624
f 421 624 422
f 422 624 627
f 422 627 423
f 423 627 453
f 423 453 9
f 480 481 616
f 480 616 615
f 615 616 619
f 615 619 618
f 618 619 622
f 618 622 621
f 621 622 625
f 621 625 624
f 624 625 628
f 624 628 627
f 627 628 454
f 627 454 453
f 481 482 617
f 481 617 616
f 616 617 620
f 616 620 619
f 619 620 623
f 619 623 622
f 622 623 626
f 622 626 625
f 625 626 629
f 625 629 628
f 628 629 455
f 628 455 454
f 482 4 428
f 482 428 617
f 617 428 427
f 617 427 620
f 620 427 426
f 620 426 623
f 623 426 425
f 623 425 626
f 626 425 424
f 626 424 629
f 629 424 11
f 629 11 455
f 4 289 630
f 4 630 428
f 428 630 632
f 428 632 427
f 427 632 634
f 427 634 426
f 426 634 636
f 426 636 425
f 425 636 638
f 425 638 424
f 424 638 276
f 424 276 11
f 289 290 631
f 289 631 630
f 630 631 633
f 630 633 632
f 632 633 635
f 632 635 634
f 634 635 637
f 634 637 636
f 636 637 639
f 636 639 638
f 638 639 277
f 638 277 276
f 290 12 173
f 290 173 631
f 631 173 174
f 631 174 633
f 633 174 175
f 633 175 635
f 635 175 176
f 635 176 637
f 637 176 177
f 637 177 639
f 639 177 13
f 639 13 277
f 4 370 640
f 4 640 289
f 289 640 652
f 289 652 290
f 290 652 157
f 290 157 12
f 370 371 641
f 370 641 640
f 640 641 653
f 640 653 652
f 652 653 158
f 652 158 157
f 371 372 642
f 371 642 641
f 641 642 654
f 641 654 653
f 653 654 159
f 653 159 158
f 372 373 643
f 372 643 642
f 642 643 655
f 642 655 654
f 654 655 160
f 654 160 159
f 373 374 644
f 373 644 643
f 643 644 656
f 643 656 655
f 655 656 161
f 655 161 160
f 374 375 645
f 374 645 644
f 644 645 657
f 644 657 656
f 656 657 162
f 656 162 161
f 375 376 646
f 375 646 645
f 645 646 658
f 645 658 657
f 657 658 163
f 657 163 162
f 376 377 647
f 376 647 646
f 646 647 659
f 646 659 658
f 658 659 164
f 658 164 163
f 377 378 648
f 377 648 647
f 647 648 660
f 647 660 659
f 659 660 165
f 659 165 164
f 378 379 649
f 378 649 648
f 648 649 661
f 648 661 660
f 660 661 166
f 660 166 165
f 379 380 650
f 379 650 649
f 649 650 662
f 649 662 661
f 661 662 167
f 661 167 166
f 380 381 651
f 380 651 650
f 650 651 663
f 650 663 662
f 662 663 168
f 662 168 167
f 381 14 293
f 381 293 651
f 651 293 294
f 651 294 663
f 663 294 15
f 663 15 168
f 4 459 664
f 4 664 370
f 370 664 668
f 370 668 371
f 371 668 672
f 371 672 372
f 372 672 676
f 372 676 373
f 373 676 680
f 373 680 374
f 374 680 684
f 374 684 375
f 375 684 688
f 375 688 376
f 376 688 692
f 376 692 377
f 377 692 696
f 377 696 378
f 378 696 700
f 378 700 379
f 379 700 704
f 379 704 380
f 380 704 708
f 380 708 381
f 381 708 506
f 381 506 14
f 459 458 665
f 459 665 664
f 664 665 669
f 664 669 668
f 668 669 673
f 668 673 672
f 672 673 677
f 672 677 676
f 676 677 681
f 676 681 680
f 680 681 685
f 680 685 684
f 684 685 689
f 684 689 688
f 688 689 693
f 688 693 692
f 692 693 697
f 692 697 696
f 696 697 701
f 696 701 700
f 700 701 705
f 700 705 704
f 704 705 709
f 704 709 708
f 708 709 505
f 708 505 506
f 458 457 666
f 458 666 665
f 665 666 670
f 665 670 669
f 669 670 674
f 669 674 673
f 673 674 678
f 673 678 677
f 677 678 682
f 677 682 681
f 681 682 686
f 681 686 685
f 685 686 690
f 685 690 689
f 689 690 694
f 689 694 693
f 693 694 698
f 693 698 697
f 697 698 702
f 697 702 701
f 701 702 706
f 701 706 705
f 705 706 710
f 705 710 709
f 709 710 504
f 709 504 505
f 457 456 667
f 457 667 666
f 666 667 671
f 666 671 670
f 670 671 675
f 670 675 674
f 674 675 679
f 674 679 678
f 678 679 683
f 678 683 682
f 682 683 687
f 682 687 686
f 686 687 691
f 686 691 690
f 690 691 695
f 690 695 694
f 694 695 699
f 694 699 698
f 698 699 703
f 698 703 702
f 702 703 707
f 702 707 706
f 706 707 711
f 706 711 710
f 710 711 503
f 710 503 504
f 456 3 403
f 456 403 667
f 667 403 404
f 667 404 671
f 671 404 405
f 671 405 675
f 675 405 406
f 675 406 679
f 679 406 407
f 679 407 683
f 683 407 408
f 683 408 687
f 687 408 409
f 687 409 691
f 691 409 410
f 691 410 695
f 695 410 411
f 695 411 699
f 699 411 412
f 699 412 703
f 703 412 413
f 703 413 707
f 707 413 414
f 707 414 711
f 711 414 16
f 711 16 503
f 2 128 712
f 2 712 500
f 500 712 716
f 500 716 501
f 501 716 720
f 501 720 502
f 502 720 235
f 502 235 3
f 128 129 713
f 128 713 712
f 712 713 717
f 712 717 716
f 716 717 721
f 716 721 720
f 720 721 236
f 720 236 235
f 129 130 714
f 129 714 713
f 713 714 718
f 713 718 717
f 717 718 722
f 717 722 721
f 721 722 237
f 721 237 236
f 130 131 715
f 130 715 714
f 714 715 719
f 714 719 718
f 718 719 723
f 718 723 722
f 722 723 238
f 722 238 237
f 131 17 69
f 131 69 715
f 715 69 68
f 715 68 719
f 719 68 67
f 719 67 723
f 723 67 18
f 723 18 238
f 2 429 724
f 2 724 128
f 128 724 734
f 128 734 129
f 129 734 744
f 129 744 130
f 130 744 754
f 130 754 131
f 131 754 127
f 131 127 17
f 429 430 725
f 429 725 724
f 724 725 735
f 724 735 734
f 734 735 745
f 734 745 744
f 744 745 755
f 744 755 754
f 754 755 126
f 754 126 127
f 430 431 726
f 430 726 725
f 725 726 736
f 725 736 735
f 735 736 746
f 735 746 745
f 745 746 756
f 745 756 755
f 755 756 125
f 755 125 126
f 431 432 727
f 431 727 726
f 726 727 737
f 726 737 736
f 736 737 747
f 736 747 746
f 746 747 757
f 746 757 756
f 756 757 124
f 756 124 125
f 432 433 728
f 432 728 727
f 727 728 738
f 727 738 737
f 737 738 748
f 737 748 747
f 747 748 758
f 747 758 757
f 757 758 123
f 757 123 124
f 433 434 729
f 433 729 728
f 728 729 739
f 728 739 738
f 738 739 749
f 738 749 748
f 748 749 759
f 748 759 758
f 758 759 122
f 758 122 123
f 434 435 730
f 434 730 729
f 729 730 740
f 729 740 739
f 739 740 750
f 739 750 749
f 749 750 760
f 749 760 759
f 759 760 121
f 759 121 122
f 435 436 731
f 435 731 730
f 730 731 741
f 730 741 740
f 740 741 751
f 740 751 750
f 750 751 761
f 750 761 760
f 760 761 120
f 760 120 121
f 436 437 732
f 436 732 731
f 731 732 742
f 731 742 741
f 741 742 752
f 741 752 751
f 751 752 762
f 751 762 761
f 761 762 119
f 761 119 120
f 437 438 733
f 437 733 732
f 732 733 743
f 732 743 742
f 742 743 753
f 742 753 752
f 752 753 763
f 752 763 762
f 762 763 118
f 762 118 119
f 438 6 272
f 438 272 733
f 733 272 273
f 733 273 743
f 743 273 274
f 743 274 753
f 753 274 275
f 753 275 763
f 763 275 19
f 763 19 118
f 3 235 764
f 3 764 403
f 403 764 768
f 403 768 404
f 404 768 772
f 404 772 405
f 405 772 776
f 405 776 406
f 406 776 780
f 406 780 407
f 407 780 784
f 407 784 408
f 408 784 788
f 408 788 409
f 409 788 792
f 409 792 410
f 410 792 796
f 410 796 411
f 411 796 800
f 411 800 412
f 412 800 804
f 412 804 413
f 413 804 808
f 413 808 414
f 414 808 284
f 414 284 16
f 235 236 765
f 235 765 764
f 764 765 769
f 764 769 768
f 768 769 773
f 768 773 772
f 772 773 777
f 772 777 776
f 776 777 781
f 776 781 780
f 780 781 785
f 780 785 784
f 784 785 789
f 784 789 788
f 788 789 793
f 788 793 792
f 792 793 797
f 792 797 796
f 796 797 801
f 796 801 800
f 800 801 805
f 800 805 804
f 804 805 809
f 804 809 808
f 808 809 285
f 808 285 284
f 236 237 766
f 236 766 765
f 765 766 770
f 765 770 769
f 769 770 774
f 769 774 773
f 773 774 778
f 773 778 777
f 777 778 782
f 777 782 781
f 781 782 786
f 781 786 785
f 785 786 790
f 785 790 789
f 789 790 794
f 789 794 793
f 793 794 798
f 793 798 797
f 797 798 802
f 797 802 801
f 801 802 806
f 801 806 805
f 805 806 810
f 805 810 809
f 809 810 286
f 809 286 285
f 237 238 767
f 237 767 766
f 766 767 771
f 766 771 770
f 770 771 775
f 770 775 774
f 774 775 779
f 774 779 778
f 778 779 783
f 778 783 782
f 782 783 787
f 782 787 786
f 786 787 791
f 786 791 790
f 790 791 795
f 790 795 794
f 794 795 799
f 794 799 798
f 798 799 803
f 798 803 802
f 802 803 807
f 802 807 806
f 806 807 811
f 806 811 810
f 810 811 287
f 810 287 286
f 238 18 149
f 238 149 767
f 767 149 148
f 767 148 771
f 771 148 147
f 771 147 775
f 775 147 146
f 775 146 779
f 779 146 145
f 779 145 783
f 783 145 144
f 783 144 787
f 787 144 143
f 787 143 791
f 791 143 142
f 791 142 795
f 795 142 141
f 795 141 799
f 799 141 140
f 799 140 803
f 803 140 139
f 803 139 807
f 807 139 138
f 807 138 811
f 811 138 20
f 811 20 287
f 7 111 812
f 7 812 104
f 104 812 815
f 104 815 105
f 105 815 818
f 105 818 106
f 106 818 821
f 106 821 107
f 107 821 69
f 107 69 17
f 111 112 813
f 111 813 812
f 812 813 816
f 812 816 815
f 815 816 819
f 815 819 818
f 818 819 822
f 818 822 821
f 821 822 68
f 821 68 69
f 112 113 814
f 112 814 813
f 813 814 817
f 813 817 816
f 816 817 820
f 816 820 819
f 819 820 823
f 819 823 822
f 822 823 67
f 822 67 68
f 113 12 74
f 113 74 814
f 814 74 75
f 814 75 817
f 817 75 76
f 817 76 820
f 820 76 77
f 820 77 823
f 823 77 18
f 823 18 67
f 7 203 824
f 7 824 111
f 111 824 829
f 111 829 112
f 112 829 834
f 112 834 113
f 113 834 173
f 113 173 12
f 203 204 825
f 203 825 824
f 824 825 830
f 824 830 829
f 829 830 835
f 829 835 834
f 834 835 174
f 834 174 173
f 204 205 826
f 204 826 825
f 825 826 831
f 825 831 830
f 830 831 836
f 830 836 835
f 835 836 175
f 835 175 174
f 205 206 827
f 205 827 826
f 826 827 832
f 826 832 831
f 831 832 837
f 831 837 836
f 836 837 176
f 836 176 175
f 206 207 828
f 206 828 827
f 827 828 833
f 827 833 832
f 832 833 838
f 832 838 837
f 837 838 177
f 837 177 176
f 207 10 135
f 207 135 828
f 828 135 136
f 828 136 833
f 833 136 137
f 833 137 838
f 838 137 13
f 838 13 177
f 7 104 839
f 7 839 267
f 267 839 843
f 267 843 266
f 266 843 847
f 266 847 265
f 265 847 851
f 265 851 264
f 264 851 855
f 264 855 263
f 263 855 859
f 263 859 262
f 262 859 863
f 262 863 261
f 261 863 867
f 261 867 260
f 260 867 871
f 260 871 259
f 259 871 875
f 259 875 258
f 258 875 169
f 258 169 8
f 104 105 840
f 104 840 839
f 839 840 844
f 839 844 843
f 843 844 848
f 843 848 847
f 847 848 852
f 847 852 851
f 851 852 856
f 851 856 855
f 855 856 860
f 855 860 859
f 859 860 864
f 859 864 863
f 863 864 868
f 863 868 867
f 867 868 872
f 867 872 871
f 871 872 876
f 871 876 875
f 875 876 170
f 875 170 169
f 105 106 841
f 105 841 840
f 840 841 845
f 840 845 844
f 844 845 849
f 844 849 848
f 848 849 853
f 848 853 852
f 852 853 857
f 852 857 856
f 856 857 861
f 856 861 860
f 860 861 865
f 860 865 864
f 864 865 869
f 864 869 868
f 868 869 873
f 868 873 872
f 872 873 877
f 872 877 876
f 876 877 171
f 876 171 170
f 106 107 842
f 106 842 841
f 841 842 846
f 841 846 845
f 845 846 850
f 845 850 849
f 849 850 854
f 849 854 853
f 853 854 858
f 853 858 857
f 857 858 862
f 857 862 861
f 861 862 866
f 861 866 865
f 865 866 870
f 865 870 869
f 869 870 874
f 869 874 873
f 873 874 878
f 873 878 877
f 877 878 172
f 877 172 171
f 107 17 127
f 107 127 842
f 842 127 126
f 842 126 846
f 846 126 125
f 846 125 850
f 850 125 124
f 850 124 854
f 854 124 123
f 854 123 858
f 858 123 122
f 858 122 862
f 862 122 121
f 862 121 866
f 866 121 120
f 866 120 870
f 870 120 119
f 870 119 874
f 874 119 118
f 874 118 878
f 878 118 19
f 878 19 172
f 12 157 879
f 12 879 74
f 74 879 891
f 74 891 75
f 75 891 903
f 75 903 76
f 76 903 915
f 76 915 77
f 77 915 149
f 77 149 18
f 157 158 880
f 157 880 879
f 879 880 892
f 879 892 891
f 891 892 904
f 891 904 903
f 903 904 916
f 903 916 915
f 915 916 148
f 915 148 149
f 158 159 881
f 158 881 880
f 880 881 893
f 880 893 892
f 892 893 905
f 892 905 904
f 904 905 917
f 904 917 916
f 916 917 147
f 916 147 148
f 159 160 882
f 159 882 881
f 881 882 894
f 881 894 893
f 893 894 906
f 893 906 905
f 905 906 918
f 905 918 917
f 917 918 146
f 917 146 147
f 160 161 883
f 160 883 882
f 882 883 895
f 882 895 894
f 894 895 907
f 894 907 906
f 906 907 919
f 906 919 918
f 918 919 145
f 918 145 146
f 161 162 884
f 161 884 883
f 883 884 896
f 883 896 895
f 895 896 908
f 895 908 907
f 907 908 920
f 907 920 919
f 919 920 144
f 919 144 145
f 162 163 885
f 162 885 884
f 884 885 897
f 884 897 896
f 896 897 909
f 896 909 908
f 908 909 921
f 908 921 920
f 920 921 143
f 920 143 144
f 163 164 886
f 163 886 885
f 885 886 898
f 885 898 897
f 897 898 910
f 897 910 909
f 909 910 922
f 909 922 921
f 921 922 142
f 921 142 143
f 164 165 887
f 164 887 886
f 886 887 899
f 886 899 898
f 898 899 911
f 898 911 910
f 910 911 923
f 910 923 922
f 922 923 141
f 922 141 142
f 165 166 888
f 165 888 887
f 887 888 900
f 887 900 899
f 899 900 912
f 899 912 911
f 911 912 924
f 911 924 923
f 923 924 140
f 923 140 141
f 166 167 889
f 166 889 888
f 888 889 901
f 888 901 900
f 900 901 913
f 900 913 912
f 912 913 925
f 912 925 924
f 924 925 139
f 924 139 140
f 167 168 890
f 167 890 889
f 889 890 902
f 889 902 901
f 901 902 914
f 901 914 913
f 913 914 926
f 913 926 925
f 925 926 138
f 925 138 139
f 168 15 70
f 168 70 890
f 890 70 71
f 890 71 902
f 902 71 72
f 902 72 914
f 914 72 73
f 914 73 926
f 926 73 20
f 926 20 138
f 21 452 927
f 21 927 418
f 418 927 930
f 418 930 417
f 417 930 933
f 417 933 416
f 416 933 936
f 416 936 415
f 415 936 455
f 415 455 11
f 452 451 928
f 452 928 927
f 927 928 931
f 927 931 930
f 930 931 934
f 930 934 933
f 933 934 937
f 933 937 936
f 936 937 454
f 936 454 455
f 451 450 929
f 451 929 928
f 928 929 932
f 928 932 931
f 931 932 935
f 931 935 934
f 934 935 938
f 934 938 937
f 937 938 453
f 937 453 454
f 450 22 449
f 450 449 929
f 929 449 448
f 929 448 932
f 932 448 447
f 932 447 935
f 935 447 446
f 935 446 938
f 938 446 9
f 938 9 453
f 21 350 939
f 21 939 452
f 452 939 948
f 452 948 451
f 451 948 957
f 451 957 450
f 450 957 396
f 450 396 22
f 350 351 940
f 350 940 939
f 939 940 949
f 939 949 948
f 948 949 958
f 948 958 957
f 957 958 395
f 957 395 396
f 351 352 941
f 351 941 940
f 940 941 950
f 940 950 949
f 949 950 959
f 949 959 958
f 958 959 394
f 958 394 395
f 352 353 942
f 352 942 941
f 941 942 951
f 941 951 950
f 950 951 960
f 950 960 959
f 959 960 393
f 959 393 394
f 353 354 943
f 353 943 942
f 942 943 952
f 942 952 951
f 951 952 961
f 951 961 960
f 960 961 392
f 960 392 393
f 354 355 944
f 354 944 943
f 943 944 953
f 943 953 952
f 952 953 962
f 952 962 961
f 961 962 391
f 961 391 392
f 355 356 945
f 355 945 944
f 944 945 954
f 944 954 953
f 953 954 963
f 953 963 962
f 962 963 390
f 962 390 391
f 356 357 946
f 356 946 945
f 945 946 955
f 945 955 954
f 954 955 964
f 954 964 963
f 963 964 389
f 963 389 390
f 357 358 947
f 357 947 946
f 946 947 956
f 946 956 955
f 955 956 965
f 955 965 964
f 964 965 388
f 964 388 389
f 358 14 462
f 358 462 947
f 947 462 461
f 947 461 956
f 956 461 460
f 956 460 965
f 965 460 23
f 965 23 388
f 21 295 966
f 21 966 350
f 350 966 968
f 350 968 351
f 351 968 970
f 351 970 352
f 352 970 972
f 352 972 353
f 353 972 974
f 353 974 354
f 354 974 976
f 354 976 355
f 355 976 978
f 355 978 356
f 356 978 980
f 356 980 357
f 357 980 982
f 357 982 358
f 358 982 293
f 358 293 14
f 295 296 967
f 295 967 966
f 966 967 969
f 966 969 968
f 968 969 971
f 968 971 970
f 970 971 973
f 970 973 972
f 972 973 975
f 972 975 974
f 974 975 977
f 974 977 976
f 976 977 979
f 976 979 978
f 978 979 981
f 978 981 980
f 980 981 983
f 980 983 982
f 982 983 294
f 982 294 293
f 296 24 239
f 296 239 967
f 967 239 240
f 967 240 969
f 969 240 241
f 969 241 971
f 971 241 242
f 971 242 973
f 973 242 243
f 973 243 975
f 975 243 244
f 975 244 977
f 977 244 245
f 977 245 979
f 979 245 246
f 979 246 981
f 981 246 247
f 981 247 983
f 983 247 15
f 983 15 294
f 21 418 984
f 21 984 295
f 295 984 988
f 295 988 296
f 296 988 208
f 296 208 24
f 418 417 985
f 418 985 984
f 984 985 989
f 984 989 988
f 988 989 209
f 988 209 208
f 417 416 986
f 417 986 985
f 985 986 990
f 985 990 989
f 989 990 210
f 989 210 209
f 416 415 987
f 416 987 986
f 986 987 991
f 986 991 990
f 990 991 211
f 990 211 210
f 415 11 276
f 415 276 987
f 987 276 277
f 987 277 991
f 991 277 13
f 991 13 211
f 22 387 992
f 22 992 449
f 449 992 995
f 449 995 448
f 448 995 998
f 448 998 447
f 447 998 1001
f 447 1001 446
f 446 1001 397
f 446 397 9
f 387 386 993
f 387 993 992
f 992 993 996
f 992 996 995
f 995 996 999
f 995 999 998
f 998 999 1002
f 998 1002 1001
f 1001 1002 398
f 1001 398 397
f 386 385 994
f 386 994 993
f 993 994 997
f 993 997 996
f 996 997 1000
f 996 1000 999
f 999 1000 1003
f 999 1003 1002
f 1002 1003 399
f 1002 399 398
f 385 25 346
f 385 346 994
f 994 346 347
f 994 347 997
f 997 347 348
f 997 348 1000
f 1000 348 349
f 1000 349 1003
f 1003 349 26
f 1003 26 399
f 22 311 1004
f 22 1004 387
f 387 1004 1008
f 387 1008 386
f 386 1008 1012
f 386 1012 385
f 385 1012 280
f 385 280 25
f 311 312 1005
f 311 1005 1004
f 1004 1005 1009
f 1004 1009 1008
f 1008 1009 1013
f 1008 1013 1012
f 1012 1013 281
f 1012 281 280
f 312 313 1006
f 312 1006 1005
f 1005 1006 1010
f 1005 1010 1009
f 1009 1010 1014
f 1009 1014 1013
f 1013 1014 282
f 1013 282 281
f 313 314 1007
f 313 1007 1006
f 1006 1007 1011
f 1006 1011 1010
f 1010 1011 1015
f 1010 1015 1014
f 1014 1015 283
f 1014 283 282
f 314 27 230
f 314 230 1007
f 1007 230 231
f 1007 231 1011
f 1011 231 232
f 1011 232 1015
f 1015 232 28
f 1015 28 283
f 22 396 1016
f 22 1016 311
f 311 1016 1025
f 311 1025 312
f 312 1025 1034
f 312 1034 313
f 313 1034 1043
f 313 1043 314
f 314 1043 180
f 314 180 27
f 396 395 1017
f 396 1017 1016
f 1016 1017 1026
f 1016 1026 1025
f 1025 1026 1035
f 1025 1035 1034
f 1034 1035 1044
f 1034 1044 1043
f 1043 1044 181
f 1043 181 180
f 395 394 1018
f 395 1018 1017
f 1017 1018 1027
f 1017 1027 1026
f 1026 1027 1036
f 1026 1036 1035
f 1035 1036 1045
f 1035 1045 1044
f 1044 1045 182
f 1044 182 181
f 394 393 1019
f 394 1019 1018
f 1018 1019 1028
f 1018 1028 1027
f 1027 1028 1037
f 1027 1037 1036
f 1036 1037 1046
f 1036 1046 1045
f 1045 1046 183
f 1045 183 182
f 393 392 1020
f 393 1020 1019
f 1019 1020 1029
f 1019 1029 1028
f 1028 1029 1038
f 1028 1038 1037
f 1037 1038 1047
f 1037 1047 1046
f 1046 1047 184
f 1046 184 183
f 392 391 1021
f 392 1021 1020
f 1020 1021 1030
f 1020 1030 1029
f 1029 1030 1039
f 1029 1039 1038
f 1038 1039 1048
f 1038 1048 1047
f 1047 1048 185
f 1047 185 184
f 391 390 1022
f 391 1022 1021
f 1021 1022 1031
f 1021 1031 1030
f 1030 1031 1040
f 1030 1040 1039
f 1039 1040 1049
f 1039 1049 1048
f 1048 1049 186
f 1048 186 185
f 390 389 1023
f 390 1023 1022
f 1022 1023 1032
f 1022 1032 1031
f 1031 1032 1041
f 1031 1041 1040
f 1040 1041 1050
f 1040 1050 1049
f 1049 1050 187
f 1049 187 186
f 389 388 1024
f 389 1024 1023
f 1023 1024 1033
f 1023 1033 1032
f 1032 1033 1042
f 1032 1042 1041
f 1041 1042 1051
f 1041 1051 1050
f 1050 1051 188
f 1050 188 187
f 388 23 248
f 388 248 1024
f 1024 248 249
f 1024 249 1033
f 1033 249 250
f 1033 250 1042
f 1042 250 251
f 1042 251 1051
f 1051 251 29
f 1051 29 188
f 9 397 1052
f 9 1052 278
f 278 1052 1055
f 278 1055 279
f 279 1055 227
f 279 227 10
f 397 398 1053
f 397 1053 1052
f 1052 1053 1056
f 1052 1056 1055
f 1055 1056 228
f 1055 228 227
f 398 399 1054
f 398 1054 1053
f 1053 1054 1057
f 1053 1057 1056
f 1056 1057 229
f 1056 229 228
f 399 26 315
f 399 315 1054
f 1054 315 316
f 1054 316 1057
f 1057 316 30
f 1057 30 229
f 24 208 1058
f 24 1058 156
f 156 1058 1062
f 156 1062 155
f 155 1062 1066
f 155 1066 154
f 154 1066 153
f 154 153 27
f 208 209 1059
f 208 1059 1058
f 1058 1059 1063
f 1058 1063 1062
f 1062 1063 1067
f 1062 1067 1066
f 1066 1067 152
f 1066 152 153
f 209 210 1060
f 209 1060 1059
f 1059 1060 1064
f 1059 1064 1063
f 1063 1064 1068
f 1063 1068 1067
f 1067 1068 151
f 1067 151 152
f 210 211 1061
f 210 1061 1060
f 1060 1061 1065
f 1060 1065 1064
f 1064 1065 1069
f 1064 1069 1068
f 1068 1069 150
f 1068 150 151
f 211 13 137
f 211 137 1061
f 1061 137 136
f 1061 136 1065
f 1065 136 135
f 1065 135 1069
f 1069 135 10
f 1069 10 150
f 24 156 1070
f 24 1070 239
f 239 1070 1073
f 239 1073 240
f 240 1073 1076
f 240 1076 241
f 241 1076 1079
f 241 1079 242
f 242 1079 1082
f 242 1082 243
f 243 1082 1085
f 243 1085 244
f 244 1085 1088
f 244 1088 245
f 245 1088 1091
f 245 1091 246
f 246 1091 1094
f 246 1094 247
f 247 1094 108
f 247 108 15
f 156 155 1071
f 156 1071 1070
f 1070 1071 1074
f 1070 1074 1073
f 1073 1074 1077
f 1073 1077 1076
f 1076 1077 1080
f 1076 1080 1079
f 1079 1080 1083
f 1079 1083 1082
f 1082 1083 1086
f 1082 1086 1085
f 1085 1086 1089
f 1085 1089 1088
f 1088 1089 1092
f 1088 1092 1091
f 1091 1092 1095
f 1091 1095 1094
f 1094 1095 109
f 1094 109 108
f 155 154 1072
f 155 1072 1071
f 1071 1072 1075
f 1071 1075 1074
f 1074 1075 1078
f 1074 1078 1077
f 1077 1078 1081
f 1077 1081 1080
f 1080 1081 1084
f 1080 1084 1083
f 1083 1084 1087
f 1083 1087 1086
f 1086 1087 1090
f 1086 1090 1089
f 1089 1090 1093
f 1089 1093 1092
f 1092 1093 1096
f 1092 1096 1095
f 1095 1096 110
f 1095 110 109
f 154 27 180
f 154 180 1072
f 1072 180 181
f 1072 181 1075
f 1075 181 182
f 1075 182 1078
f 1078 182 183
f 1078 183 1081
f 1081 183 184
f 1081 184 1084
f 1084 184 185
f 1084 185 1087
f 1087 185 186
f 1087 186 1090
f 1090 186 187
f 1090 187 1093
f 1093 187 188
f 1093 188 1096
f 1096 188 29
f 1096 29 110
f 27 153 1097
f 27 1097 230
f 230 1097 1101
f 230 1101 231
f 231 1101 1105
f 231 1105 232
f 232 1105 252
f 232 252 28
f 153 152 1098
f 153 1098 1097
f 1097 1098 1102
f 1097 1102 1101
f 1101 1102 1106
f 1101 1106 1105
f 1105 1106 253
f 1105 253 252
f 152 151 1099
f 152 1099 1098
f 1098 1099 1103
f 1098 1103 1102
f 1102 1103 1107
f 1102 1107 1106
f 1106 1107 254
f 1106 254 253
f 151 150 1100
f 151 1100 1099
f 1099 1100 1104
f 1099 1104 1103
f 1103 1104 1108
f 1103 1108 1107
f 1107 1108 255
f 1107 255 254
f 150 10 227
f 150 227 1100
f 1100 227 228
f 1100 228 1104
f 1104 228 229
f 1104 229 1108
f 1108 229 30
f 1108 30 255
f 31 302 1109
f 31 1109 288
f 288 1109 310
f 288 310 8
f 302 301 1110
f 302 1110 1109
f 1109 1110 309
f 1109 309 310
f 301 32 345
f 301 345 1110
f 1110 345 5
f 1110 5 309
f 31 212 1111
f 31 1111 302
f 302 1111 1125
f 302 1125 301
f 301 1125 331
f 301 331 32
f 212 213 1112
f 212 1112 1111
f 1111 1112 1126
f 1111 1126 1125
f 1125 1126 332
f 1125 332 331
f 213 214 1113
f 213 1113 1112
f 1112 1113 1127
f 1112 1127 1126
f 1126 1127 333
f 1126 333 332
f 214 215 1114
f 214 1114 1113
f 1113 1114 1128
f 1113 1128 1127
f 1127 1128 334
f 1127 334 333
f 215 216 1115
f 215 1115 1114
f 1114 1115 1129
f 1114 1129 1128
f 1128 1129 335
f 1128 335 334
f 216 217 1116
f 216 1116 1115
f 1115 1116 1130
f 1115 1130 1129
f 1129 1130 336
f 1129 336 335
f 217 218 1117
f 217 1117 1116
f 1116 1117 1131
f 1116 1131 1130
f 1130 1131 337
f 1130 337 336
f 218 219 1118
f 218 1118 1117
f 1117 1118 1132
f 1117 1132 1131
f 1131 1132 338
f 1131 338 337
f 219 220 1119
f 219 1119 1118
f 1118 1119 1133
f 1118 1133 1132
f 1132 1133 339
f 1132 339 338
f 220 221 1120
f 220 1120 1119
f 1119 1120 1134
f 1119 1134 1133
f 1133 1134 340
f 1133 340 339
f 221 222 1121
f 221 1121 1120
f 1120 1121 1135
f 1120 1135 1134
f 1134 1135 341
f 1134 341 340
f 222 223 1122
f 222 1122 1121
f 1121 1122 1136
f 1121 1136 1135
f 1135 1136 342
f 1135 342 341
f 223 224 1123
f 223 1123 1122
f 1122 1123 1137
f 1122 1137 1136
f 1136 1137 343
f 1136 343 342
f 224 225 1124
f 224 1124 1123
f 1123 1124 1138
f 1123 1138 1137
f 1137 1138 344
f 1137 344 343
f 225 33 304
f 225 304 1124
f 1124 304 303
f 1124 303 1138
f 1138 303 34
f 1138 34 344
f 31 226 1139
f 31 1139 212
f 212 1139 1140
f 212 1140 213
f 213 1140 1141
f 213 1141 214
f 214 1141 1142
f 214 1142 215
f 215 1142 1143
f 215 1143 216
f 216 1143 1144
f 216 1144 217
f 217 1144 1145
f 217 1145 218
f 218 1145 1146
f 218 1146 219
f 219 1146 1147
f 219 1147 220
f 220 1147 1148
f 220 1148 221
f 221 1148 1149
f 221 1149 222
f 222 1149 1150
f 222 1150 223
f 223 1150 1151
f 223 1151 224
f 224 1151 1152
f 224 1152 225
f 225 1152 256
f 225 256 33
f 226 35 202
f 226 202 1139
f 1139 202 201
f 1139 201 1140
f 1140 201 200
f 1140 200 1141
f 1141 200 199
f 1141 199 1142
f 1142 199 198
f 1142 198 1143
f 1143 198 197
f 1143 197 1144
f 1144 197 196
f 1144 196 1145
f 1145 196 195
f 1145 195 1146
f 1146 195 194
f 1146 194 1147
f 1147 194 193
f 1147 193 1148
f 1148 193 192
f 1148 192 1149
f 1149 192 191
f 1149 191 1150
f 1150 191 190
f 1150 190 1151
f 1151 190 189
f 1151 189 1152
f 1152 189 36
f 1152 36 256
f 31 91 1153
f 31 1153 226
f 226 1153 54
f 226 54 35
f 91 92 1154
f 91 1154 1153
f 1153 1154 55
f 1153 55 54
f 92 93 1155
f 92 1155 1154
f 1154 1155 56
f 1154 56 55
f 93 94 1156
f 93 1156 1155
f 1155 1156 57
f 1155 57 56
f 94 95 1157
f 94 1157 1156
f 1156 1157 58
f 1156 58 57
f 95 96 1158
f 95 1158 1157
f 1157 1158 59
f 1157 59 58
f 96 97 1159
f 96 1159 1158
f 1158 1159 60
f 1158 60 59
f 97 98 1160
f 97 1160 1159
f 1159 1160 61
f 1159 61 60
f 98 99 1161
f 98 1161 1160
f 1160 1161 62
f 1160 62 61
f 99 100 1162
f 99 1162 1161
f 1161 1162 63
f 1161 63 62
f 100 101 1163
f 100 1163 1162
f 1162 1163 64
f 1162 64 63
f 101 102 1164
f 101 1164 1163
f 1163 1164 65
f 1163 65 64
f 102 103 1165
f 102 1165 1164
f 1164 1165 66
f 1164 66 65
f 103 33 256
f 103 256 1165
f 1165 256 36
f 1165 36 66
f 31 288 1166
f 31 1166 91
f 91 1166 1167
f 91 1167 92
f 92 1167 1168
f 92 1168 93
f 93 1168 1169
f 93 1169 94
f 94 1169 1170
f 94 1170 95
f 95 1170 1171
f 95 1171 96
f 96 1171 1172
f 96 1172 97
f 97 1172 1173
f 97 1173 98
f 98 1173 1174
f 98 1174 99
f 99 1174 1175
f 99 1175 100
f 100 1175 1176
f 100 1176 101
f 101 1176 1177
f 101 1177 102
f 102 1177 1178
f 102 1178 103
f 103 1178 257
f 103 257 33
f 288 8 90
f 288 90 1166
f 1166 90 89
f 1166 89 1167
f 1167 89 88
f 1167 88 1168
f 1168 88 87
f 1168 87 1169
f 1169 87 86
f 1169 86 1170
f 1170 86 85
f 1170 85 1171
f 1171 85 84
f 1171 84 1172
f 1172 84 83
f 1172 83 1173
f 1173 83 82
f 1173 82 1174
f 1174 82 81
f 1174 81 1175
f 1175 81 80
f 1175 80 1176
f 1176 80 79
f 1176 79 1177
f 1177 79 78
f 1177 78 1178
f 1178 78 30
f 1178 30 257
f 32 483 1179
f 32 1179 345
f 345 1179 467
f 345 467 5
f 483 484 1180
f 483 1180 1179
f 1179 1180 468
f 1179 468 467
f 484 485 1181
f 484 1181 1180
f 1180 1181 469
f 1180 469 468
f 485 486 1182
f 485 1182 1181
f 1181 1182 470
f 1181 470 469
f 486 487 1183
f 486 1183 1182
f 1182 1183 471
f 1182 471 470
f 487 488 1184
f 487 1184 1183
f 1183 1184 472
f 1183 472 471
f 488 489 1185
f 488 1185 1184
f 1184 1185 473
f 1184 473 472
f 489 490 1186
f 489 1186 1185
f 1185 1186 474
f 1185 474 473
f 490 491 1187
f 490 1187 1186
f 1186 1187 475
f 1186 475 474
f 491 492 1188
f 491 1188 1187
f 1187 1188 476
f 1187 476 475
f 492 493 1189
f 492 1189 1188
f 1188 1189 477
f 1188 477 476
f 493 494 1190
f 493 1190 1189
f 1189 1190 478
f 1189 478 477
f 494 495 1191
f 494 1191 1190
f 1190 1191 479
f 1190 479 478
f 495 34 369
f 495 369 1191
f 1191 369 26
f 1191 26 479
f 32 402 1192
f 32 1192 483
f 483 1192 1193
f 483 1193 484
f 484 1193 1194
f 484 1194 485
f 485 1194 1195
f 485 1195 486
f 486 1195 1196
f 486 1196 487
f 487 1196 1197
f 487 1197 488
f 488 1197 1198
f 488 1198 489
f 489 1198 1199
f 489 1199 490
f 490 1199 1200
f 490 1200 491
f 491 1200 1201
f 491 1201 492
f 492 1201 1202
f 492 1202 493
f 493 1202 1203
f 493 1203 494
f 494 1203 1204
f 494 1204 495
f 495 1204 382
f 495 382 34
f 402 37 520
f 402 520 1192
f 1192 520 521
f 1192 521 1193
f 1193 521 522
f 1193 522 1194
f 1194 522 523
f 1194 523 1195
f 1195 523 524
f 1195 524 1196
f 1196 524 525
f 1196 525 1197
f 1197 525 526
f 1197 526 1198
f 1198 526 527
f 1198 527 1199
f 1199 527 528
f 1199 528 1200
f 1200 528 529
f 1200 529 1201
f 1201 529 530
f 1201 530 1202
f 1202 530 531
f 1202 531 1203
f 1203 531 532
f 1203 532 1204
f 1204 532 38
f 1204 38 382
f 32 331 1205
f 32 1205 402
f 402 1205 317
f 402 317 37
f 331 332 1206
f 331 1206 1205
f 1205 1206 318
f 1205 318 317
f 332 333 1207
f 332 1207 1206
f 1206 1207 319
f 1206 319 318
f 333 334 1208
f 333 1208 1207
f 1207 1208 320
f 1207 320 319
f 334 335 1209
f 334 1209 1208
f 1208 1209 321
f 1208 321 320
f 335 336 1210
f 335 1210 1209
f 1209 1210 322
f 1209 322 321
f 336 337 1211
f 336 1211 1210
f 1210 1211 323
f 1210 323 322
f 337 338 1212
f 337 1212 1211
f 1211 1212 324
f 1211 324 323
f 338 339 1213
f 338 1213 1212
f 1212 1213 325
f 1212 325 324
f 339 340 1214
f 339 1214 1213
f 1213 1214 326
f 1213 326 325
f 340 341 1215
f 340 1215 1214
f 1214 1215 327
f 1214 327 326
f 341 342 1216
f 341 1216 1215
f 1215 1216 328
f 1215 328 327
f 342 343 1217
f 342 1217 1216
f 1216 1217 329
f 1216 329 328
f 343 344 1218
f 343 1218 1217
f 1217 1218 330
f 1217 330 329
f 344 34 382
f 344 382 1218
f 1218 382 38
f 1218 38 330
f 35 178 1219
f 35 1219 300
f 300 1219 1221
f 300 1221 299
f 299 1221 1223
f 299 1223 298
f 298 1223 1225
f 298 1225 297
f 297 1225 400
f 297 400 37
f 178 179 1220
f 178 1220 1219
f 1219 1220 1222
f 1219 1222 1221
f 1221 1222 1224
f 1221 1224 1223
f 1223 1224 1226
f 1223 1226 1225
f 1225 1226 401
f 1225 401 400
f 179 19 275
f 179 275 1220
f 1220 275 274
f 1220 274 1222
f 1222 274 273
f 1222 273 1224
f 1224 273 272
f 1224 272 1226
f 1226 272 6
f 1226 6 401
f 35 54 1227
f 35 1227 178
f 178 1227 1240
f 178 1240 179
f 179 1240 53
f 179 53 19
f 54 55 1228
f 54 1228 1227
f 1227 1228 1241
f 1227 1241 1240
f 1240 1241 52
f 1240 52 53
f 55 56 1229
f 55 1229 1228
f 1228 1229 1242
f 1228 1242 1241
f 1241 1242 51
f 1241 51 52
f 56 57 1230
f 56 1230 1229
f 1229 1230 1243
f 1229 1243 1242
f 1242 1243 50
f 1242 50 51
f 57 58 1231
f 57 1231 1230
f 1230 1231 1244
f 1230 1244 1243
f 1243 1244 49
f 1243 49 50
f 58 59 1232
f 58 1232 1231
f 1231 1232 1245
f 1231 1245 1244
f 1244 1245 48
f 1244 48 49
f 59 60 1233
f 59 1233 1232
f 1232 1233 1246
f 1232 1246 1245
f 1245 1246 47
f 1245 47 48
f 60 61 1234
f 60 1234 1233
f 1233 1234 1247
f 1233 1247 1246
f 1246 1247 46
f 1246 46 47
f 61 62 1235
f 61 1235 1234
f 1234 1235 1248
f 1234 1248 1247
f 1247 1248 45
f 1247 45 46
f 62 63 1236
f 62 1236 1235
f 1235 1236 1249
f 1235 1249 1248
f 1248 1249 44
f 1248 44 45
f 63 64 1237
f 63 1237 1236
f 1236 1237 1250
f 1236 1250 1249
f 1249 1250 43
f 1249 43 44
f 64 65 1238
f 64 1238 1237
f 1237 1238 1251
f 1237 1251 1250
f 1250 1251 42
f 1250 42 43
f 65 66 1239
f 65 1239 1238
f 1238 1239 1252
f 1238 1252 1251
f 1251 1252 41
f 1251 41 42
f 66 36 233
f 66 233 1239
f 1239 233 234
f 1239 234 1252
f 1252 234 28
f 1252 28 41
f 35 300 1253
f 35 1253 202
f 202 1253 1257
f 202 1257 201
f 201 1257 1261
f 201 1261 200
f 200 1261 1265
f 200 1265 199
f 199 1265 1269
f 199 1269 198
f 198 1269 1273
f 198 1273 197
f 197 1273 1277
f 197 1277 196
f 196 1277 1281
f 196 1281 195
f 195 1281 1285
f 195 1285 194
f 194 1285 1289
f 194 1289 193
f 193 1289 1293
f 193 1293 192
f 192 1293 1297
f 192 1297 191
f 191 1297 1301
f 191 1301 190
f 190 1301 1305
f 190 1305 189
f 189 1305 308
f 189 308 36
f 300 299 1254
f 300 1254 1253
f 1253 1254 1258
f 1253 1258 1257
f 1257 1258 1262
f 1257 1262 1261
f 1261 1262 1266
f 1261 1266 1265
f 1265 1266 1270
f 1265 1270 1269
f 1269 1270 1274
f 1269 1274 1273
f 1273 1274 1278
f 1273 1278 1277
f 1277 1278 1282
f 1277 1282 1281
f 1281 1282 1286
f 1281 1286 1285
f 1285 1286 1290
f 1285 1290 1289
f 1289 1290 1294
f 1289 1294 1293
f 1293 1294 1298
f 1293 1298 1297
f 1297 1298 1302
f 1297 1302 1301
f 1301 1302 1306
f 1301 1306 1305
f 1305 1306 307
f 1305 307 308
f 299 298 1255
f 299 1255 1254
f 1254 1255 1259
f 1254 1259 1258
f 1258 1259 1263
f 1258 1263 1262
f 1262 1263 1267
f 1262 1267 1266
f 1266 1267 1271
f 1266 1271 1270
f 1270 1271 1275
f 1270 1275 1274
f 1274 1275 1279
f 1274 1279 1278
f 1278 1279 1283
f 1278 1283 1282
f 1282 1283 1287
f 1282 1287 1286
f 1286 1287 1291
f 1286 1291 1290
f 1290 1291 1295
f 1290 1295 1294
f 1294 1295 1299
f 1294 1299 1298
f 1298 1299 1303
f 1298 1303 1302
f 1302 1303 1307
f 1302 1307 1306
f 1306 1307 306
f 1306 306 307
f 298 297 1256
f 298 1256 1255
f 1255 1256 1260
f 1255 1260 1259
f 1259 1260 1264
f 1259 1264 1263
f 1263 1264 1268
f 1263 1268 1267
f 1267 1268 1272
f 1267 1272 1271
f 1271 1272 1276
f 1271 1276 1275
f 1275 1276 1280
f 1275 1280 1279
f 1279 1280 1284
f 1279 1284 1283
f 1283 1284 1288
f 1283 1288 1287
f 1287 1288 1292
f 1287 1292 1291
f 1291 1292 1296
f 1291 1296 1295
f 1295 1296 1300
f 1295 1300 1299
f 1299 1300 1304
f 1299 1304 1303
f 1303 1304 1308
f 1303 1308 1307
f 1307 1308 305
f 1307 305 306
f 297 37 317
f 297 317 1256
f 1256 317 318
f 1256 318 1260
f 1260 318 319
f 1260 319 1264
f 1264 319 320
f 1264 320 1268
f 1268 320 321
f 1268 321 1272
f 1272 321 322
f 1272 322 1276
f 1276 322 323
f 1276 323 1280
f 1280 323 324
f 1280 324 1284
f 1284 324 325
f 1284 325 1288
f 1288 325 326
f 1288 326 1292
f 1292 326 327
f 1292 327 1296
f 1296 327 328
f 1296 328 1300
f 1300 328 329
f 1300 329 1304
f 1304 329 330
f 1304 330 1308
f 1308 330 38
f 1308 38 305
f 37 400 1309
f 37 1309 520
f 520 1309 1311
f 520 1311 521
f 521 1311 1313
f 521 1313 522
f 522 1313 1315
f 522 1315 523
f 523 1315 1317
f 523 1317 524
f 524 1317 1319
f 524 1319 525
f 525 1319 1321
f 525 1321 526
f 526 1321 1323
f 526 1323 527
f 527 1323 1325
f 527 1325 528
f 528 1325 1327
f 528 1327 529
f 529 1327 1329
f 529 1329 530
f 530 1329 1331
f 530 1331 531
f 531 1331 1333
f 531 1333 532
f 532 1333 383
f 532 383 38
f 400 401 1310
f 400 1310 1309
f 1309 1310 1312
f 1309 1312 1311
f 1311 1312 1314
f 1311 1314 1313
f 1313 1314 1316
f 1313 1316 1315
f 1315 1316 1318
f 1315 1318 1317
f 1317 1318 1320
f 1317 1320 1319
f 1319 1320 1322
f 1319 1322 1321
f 1321 1322 1324
f 1321 1324 1323
f 1323 1324 1326
f 1323 1326 1325
f 1325 1326 1328
f 1325 1328 1327
f 1327 1328 1330
f 1327 1330 1329
f 1329 1330 1332
f 1329 1332 1331
f 1331 1332 1334
f 1331 1334 1333
f 1333 1334 384
f 1333 384 383
f 401 6 519
f 401 519 1310
f 1310 519 518
f 1310 518 1312
f 1312 518 517
f 1312 517 1314
f 1314 517 516
f 1314 516 1316
f 1316 516 515
f 1316 515 1318
f 1318 515 514
f 1318 514 1320
f 1320 514 513
f 1320 513 1322
f 1322 513 512
f 1322 512 1324
f 1324 512 511
f 1324 511 1326
f 1326 511 510
f 1326 510 1328
f 1328 510 509
f 1328 509 1330
f 1330 509 508
f 1330 508 1332
f 1332 508 507
f 1332 507 1334
f 1334 507 25
f 1334 25 384
f 8 169 1335
f 8 1335 90
f 90 1335 1339
f 90 1339 89
f 89 1339 1343
f 89 1343 88
f 88 1343 1347
f 88 1347 87
f 87 1347 1351
f 87 1351 86
f 86 1351 1355
f 86 1355 85
f 85 1355 1359
f 85 1359 84
f 84 1359 1363
f 84 1363 83
f 83 1363 1367
f 83 1367 82
f 82 1367 1371
f 82 1371 81
f 81 1371 1375
f 81 1375 80
f 80 1375 1379
f 80 1379 79
f 79 1379 1383
f 79 1383 78
f 78 1383 255
f 78 255 30
f 169 170 1336
f 169 1336 1335
f 1335 1336 1340
f 1335 1340 1339
f 1339 1340 1344
f 1339 1344 1343
f 1343 1344 1348
f 1343 1348 1347
f 1347 1348 1352
f 1347 1352 1351
f 1351 1352 1356
f 1351 1356 1355
f 1355 1356 1360
f 1355 1360 1359
f 1359 1360 1364
f 1359 1364 1363
f 1363 1364 1368
f 1363 1368 1367
f 1367 1368 1372
f 1367 1372 1371
f 1371 1372 1376
f 1371 1376 1375
f 1375 1376 1380
f 1375 1380 1379
f 1379 1380 1384
f 1379 1384 1383
f 1383 1384 254
f 1383 254 255
f 170 171 1337
f 170 1337 1336
f 1336 1337 1341
f 1336 1341 1340
f 1340 1341 1345
f 1340 1345 1344
f 1344 1345 1349
f 1344 1349 1348
f 1348 1349 1353
f 1348 1353 1352
f 1352 1353 1357
f 1352 1357 1356
f 1356 1357 1361
f 1356 1361 1360
f 1360 1361 1365
f 1360 1365 1364
f 1364 1365 1369
f 1364 1369 1368
f 1368 1369 1373
f 1368 1373 1372
f 1372 1373 1377
f 1372 1377 1376
f 1376 1377 1381
f 1376 1381 1380
f 1380 1381 1385
f 1380 1385 1384
f 1384 1385 253
f 1384 253 254
f 171 172 1338
f 171 1338 1337
f 1337 1338 1342
f 1337 1342 1341
f 1341 1342 1346
f 1341 1346 1345
f 1345 1346 1350
f 1345 1350 1349
f 1349 1350 1354
f 1349 1354 1353
f 1353 1354 1358
f 1353 1358 1357
f 1357 1358 1362
f 1357 1362 1361
f 1361 1362 1366
f 1361 1366 1365
f 1365 1366 1370
f 1365 1370 1369
f 1369 1370 1374
f 1369 1374 1373
f 1373 1374 1378
f 1373 1378 1377
f 1377 1378 1382
f 1377 1382 1381
f 1381 1382 1386
f 1381 1386 1385
f 1385 1386 252
f 1385 252 253
f 172 19 53
f 172 53 1338
f 1338 53 52
f 1338 52 1342
f 1342 52 51
f 1342 51 1346
f 1346 51 50
f 1346 50 1350
f 1350 50 49
f 1350 49 1354
f 1354 49 48
f 1354 48 1358
f 1358 48 47
f 1358 47 1362
f 1362 47 46
f 1362 46 1366
f 1366 46 45
f 1366 45 1370
f 1370 45 44
f 1370 44 1374
f 1374 44 43
f 1374 43 1378
f 1378 43 42
f 1378 42 1382
f 1382 42 41
f 1382 41 1386
f 1386 41 28
f 1386 28 252
f 5 467 1387
f 5 1387 442
f 442 1387 1400
f 442 1400 443
f 443 1400 1413
f 443 1413 444
f 444 1413 1426
f 444 1426 445
f 445 1426 519
f 445 519 6
f 467 468 1388
f 467 1388 1387
f 1387 1388 1401
f 1387 1401 1400
f 1400 1401 1414
f 1400 1414 1413
f 1413 1414 1427
f 1413 1427 1426
f 1426 1427 518
f 1426 518 519
f 468 469 1389
f 468 1389 1388
f 1388 1389 1402
f 1388 1402 1401
f 1401 1402 1415
f 1401 1415 1414
f 1414 1415 1428
f 1414 1428 1427
f 1427 1428 517
f 1427 517 518
f 469 470 1390
f 469 1390 1389
f 1389 1390 1403
f 1389 1403 1402
f 1402 1403 1416
f 1402 1416 1415
f 1415 1416 1429
f 1415 1429 1428
f 1428 1429 516
f 1428 516 517
f 470 471 1391
f 470 1391 1390
f 1390 1391 1404
f 1390 1404 1403
f 1403 1404 1417
f 1403 1417 1416
f 1416 1417 1430
f 1416 1430 1429
f 1429 1430 515
f 1429 515 516
f 471 472 1392
f 471 1392 1391
f 1391 1392 1405
f 1391 1405 1404
f 1404 1405 1418
f 1404 1418 1417
f 1417 1418 1431
f 1417 1431 1430
f 1430 1431 514
f 1430 514 515
f 472 473 1393
f 472 1393 1392
f 1392 1393 1406
f 1392 1406 1405
f 1405 1406 1419
f 1405 1419 1418
f 1418 1419 1432
f 1418 1432 1431
f 1431 1432 513
f 1431 513 514
f 473 474 1394
f 473 1394 1393
f 1393 1394 1407
f 1393 1407 1406
f 1406 1407 1420
f 1406 1420 1419
f 1419 1420 1433
f 1419 1433 1432
f 1432 1433 512
f 1432 512 513
f 474 475 1395
f 474 1395 1394
f 1394 1395 1408
f 1394 1408 1407
f 1407 1408 1421
f 1407 1421 1420
f 1420 1421 1434
f 1420 1434 1433
f 1433 1434 511
f 1433 511 512
f 475 476 1396
f 475 1396 1395
f 1395 1396 1409
f 1395 1409 1408
f 1408 1409 1422
f 1408 1422 1421
f 1421 1422 1435
f 1421 1435 1434
f 1434 1435 510
f 1434 510 511
f 476 477 1397
f 476 1397 1396
f 1396 1397 1410
f 1396 1410 1409
f 1409 1410 1423
f 1409 1423 1422
f 1422 1423 1436
f 1422 1436 1435
f 1435 1436 509
f 1435 509 510
f 477 478 1398
f 477 1398 1397
f 1397 1398 1411
f 1397 1411 1410
f 1410 1411 1424
f 1410 1424 1423
f 1423 1424 1437
f 1423 1437 1436
f 1436 1437 508
f 1436 508 509
f 478 479 1399
f 478 1399 1398
f 1398 1399 1412
f 1398 1412 1411
f 1411 1412 1425
f 1411 1425 1424
f 1424 1425 1438
f 1424 1438 1437
f 1437 1438 507
f 1437 507 508
f 479 26 349
f 479 349 1399
f 1399 349 348
f 1399 348 1412
f 1412 348 347
f 1412 347 1425
f 1425 347 346
f 1425 346 1438
f 1438 346 25
f 1438 25 507
f 38 383 1439
f 38 1439 305
f 305 1439 1441
f 305 1441 306
f 306 1441 1443
f 306 1443 307
f 307 1443 1445
f 307 1445 308
f 308 1445 233
f 308 233 36
f 383 384 1440
f 383 1440 1439
f 1439 1440 1442
f 1439 1442 1441
f 1441 1442 1444
f 1441 1444 1443
f 1443 1444 1446
f 1443 1446 1445
f 1445 1446 234
f 1445 234 233
f 384 25 280
f 384 280 1440
f 1440 280 281
f 1440 281 1442
f 1442 281 282
f 1442 282 1444
f 1444 282 283
f 1444 283 1446
f 1446 283 28
f 1446 28 234
f 34 303 1447
f 34 1447 369
f 369 1447 315
f 369 315 26
f 303 304 1448
f 303 1448 1447
f 1447 1448 316
f 1447 316 315
f 304 33 257
f 304 257 1448
f 1448 257 30
f 1448 30 316
f 29 251 1449
f 29 1449 117
f 117 1449 1453
f 117 1453 116
f 116 1453 1457
f 116 1457 115
f 115 1457 1461
f 115 1461 114
f 114 1461 271
f 114 271 40
f 251 250 1450
f 251 1450 1449
f 1449 1450 1454
f 1449 1454 1453
f 1453 1454 1458
f 1453 1458 1457
f 1457 1458 1462
f 1457 1462 1461
f 1461 1462 270
f 1461 270 271
f 250 249 1451
f 250 1451 1450
f 1450 1451 1455
f 1450 1455 1454
f 1454 1455 1459
f 1454 1459 1458
f 1458 1459 1463
f 1458 1463 1462
f 1462 1463 269
f 1462 269 270
f 249 248 1452
f 249 1452 1451
f 1451 1452 1456
f 1451 1456 1455
f 1455 1456 1460
f 1455 1460 1459
f 1459 1460 1464
f 1459 1464 1463
f 1463 1464 268
f 1463 268 269
f 248 23 466
f 248 466 1452
f 1452 466 465
f 1452 465 1456
f 1456 465 464
f 1456 464 1460
f 1460 464 463
f 1460 463 1464
f 1464 463 39
f 1464 39 268
f 29 117 1465
f 29 1465 110
f 110 1465 1469
f 110 1469 109
f 109 1469 1473
f 109 1473 108
f 108 1473 70
f 108 70 15
f 117 116 1466
f 117 1466 1465
f 1465 1466 1470
f 1465 1470 1469
f 1469 1470 1474
f 1469 1474 1473
f 1473 1474 71
f 1473 71 70
f 116 115 1467
f 116 1467 1466
f 1466 1467 1471
f 1466 1471 1470
f 1470 1471 1475
f 1470 1475 1474
f 1474 1475 72
f 1474 72 71
f 115 114 1468
f 115 1468 1467
f 1467 1468 1472
f 1467 1472 1471
f 1471 1472 1476
f 1471 1476 1475
f 1475 1476 73
f 1475 73 72
f 114 40 132
f 114 132 1468
f 1468 132 133
f 1468 133 1472
f 1472 133 134
f 1472 134 1476
f 1476 134 20
f 1476 20 73
f 40 271 1477
f 40 1477 132
f 132 1477 1481
f 132 1481 133
f 133 1481 1485
f 133 1485 134
f 134 1485 287
f 134 287 20
f 271 270 1478
f 271 1478 1477
f 1477 1478 1482
f 1477 1482 1481
f 1481 1482 1486
f 1481 1486 1485
f 1485 1486 286
f 1485 286 287
f 270 269 1479
f 270 1479 1478
f 1478 1479 1483
f 1478 1483 1482
f 1482 1483 1487
f 1482 1487 1486
f 1486 1487 285
f 1486 285 286
f 269 268 1480
f 269 1480 1479
f 1479 1480 1484
f 1479 1484 1483
f 1483 1484 1488
f 1483 1488 1487
f 1487 1488 284
f 1487 284 285
f 268 39 441
f 268 441 1480
f 1480 441 440
f 1480 440 1484
f 1484 440 439
f 1484 439 1488
f 1488 439 16
f 1488 16 284
f 23 460 1489
f 23 1489 466
f 466 1489 1492
f 466 1492 465
f 465 1492 1495
f 465 1495 464
f 464 1495 1498
f 464 1498 463
f 463 1498 441
f 463 441 39
f 460 461 1490
f 460 1490 1489
f 1489 1490 1493
f 1489 1493 1492
f 1492 1493 1496
f 1492 1496 1495
f 1495 1496 1499
f 1495 1499 1498
f 1498 1499 440
f 1498 440 441
f 461 462 1491
f 461 1491 1490
f 1490 1491 1494
f 1490 1494 1493
f 1493 1494 1497
f 1493 1497 1496
f 1496 1497 1500
f 1496 1500 1499
f 1499 1500 439
f 1499 439 440
f 462 14 506
f 462 506 1491
f 1491 506 505
f 1491 505 1494
f 1494 505 504
f 1494 504 1497
f 1497 504 503
f 1497 503 1500
f 1500 503 16
f 1500 16 439
# 3012 faces, 0 coords texture

# End of File
